<svg class="main-svg" xmlns="http://www.w3.org/2000/svg" xmlns:xlink="http://www.w3.org/1999/xlink" width="700" height="420" style="" viewBox="0 0 700 420"><rect x="0" y="0" width="700" height="420" style="fill: rgb(0, 0, 0); fill-opacity: 0;"/><defs id="defs-92f09d"><g class="clips"><clipPath id="clip92f09dxyplot" class="plotclip"><rect width="610" height="330"/></clipPath><clipPath class="axesclip" id="clip92f09dx"><rect x="60" y="0" width="610" height="420"/></clipPath><clipPath class="axesclip" id="clip92f09dy"><rect x="0" y="30" width="700" height="330"/></clipPath><clipPath class="axesclip" id="clip92f09dxy"><rect x="60" y="30" width="610" height="330"/></clipPath></g><g class="gradients"/><g class="patterns"/></defs><g class="bglayer"><rect class="bg" x="60" y="30" width="610" height="330" style="fill: rgb(0, 0, 0); fill-opacity: 0; stroke-width: 0;"/></g><g class="layer-below"><g class="imagelayer"/><g class="shapelayer"/></g><g class="cartesianlayer"><g class="subplot xy"><g class="layer-subplot"><g class="shapelayer"/><g class="imagelayer"/></g><g class="minor-gridlayer"><g class="x"/><g class="y"/></g><g class="gridlayer"><g class="x"><path class="xgrid crisp" transform="translate(96,0)" d="M0,30v330" style="stroke: rgb(255, 255, 255); stroke-opacity: 1; stroke-width: 1px;"/><path class="xgrid crisp" transform="translate(192.97,0)" d="M0,30v330" style="stroke: rgb(255, 255, 255); stroke-opacity: 1; stroke-width: 1px;"/><path class="xgrid crisp" transform="translate(290.08000000000004,0)" d="M0,30v330" style="stroke: rgb(255, 255, 255); stroke-opacity: 1; stroke-width: 1px;"/><path class="xgrid crisp" transform="translate(387.05,0)" d="M0,30v330" style="stroke: rgb(255, 255, 255); stroke-opacity: 1; stroke-width: 1px;"/><path class="xgrid crisp" transform="translate(484.16,0)" d="M0,30v330" style="stroke: rgb(255, 255, 255); stroke-opacity: 1; stroke-width: 1px;"/><path class="xgrid crisp" transform="translate(581.13,0)" d="M0,30v330" style="stroke: rgb(255, 255, 255); stroke-opacity: 1; stroke-width: 1px;"/></g><g class="y"><path class="ygrid crisp" transform="translate(0,300.08)" d="M60,0h610" style="stroke: rgb(255, 255, 255); stroke-opacity: 1; stroke-width: 1px;"/><path class="ygrid crisp" transform="translate(0,256.65999999999997)" d="M60,0h610" style="stroke: rgb(255, 255, 255); stroke-opacity: 1; stroke-width: 1px;"/><path class="ygrid crisp" transform="translate(0,213.24)" d="M60,0h610" style="stroke: rgb(255, 255, 255); stroke-opacity: 1; stroke-width: 1px;"/><path class="ygrid crisp" transform="translate(0,169.82)" d="M60,0h610" style="stroke: rgb(255, 255, 255); stroke-opacity: 1; stroke-width: 1px;"/><path class="ygrid crisp" transform="translate(0,126.39)" d="M60,0h610" style="stroke: rgb(255, 255, 255); stroke-opacity: 1; stroke-width: 1px;"/><path class="ygrid crisp" transform="translate(0,82.97)" d="M60,0h610" style="stroke: rgb(255, 255, 255); stroke-opacity: 1; stroke-width: 1px;"/><path class="ygrid crisp" transform="translate(0,39.55)" d="M60,0h610" style="stroke: rgb(255, 255, 255); stroke-opacity: 1; stroke-width: 1px;"/></g></g><g class="zerolinelayer"><path class="yzl zl crisp" transform="translate(0,343.5)" d="M60,0h610" style="stroke: rgb(255, 255, 255); stroke-opacity: 1; stroke-width: 2px;"/></g><g class="layer-between"><g class="shapelayer"/><g class="imagelayer"/></g><path class="xlines-below"/><path class="ylines-below"/><g class="overlines-below"/><g class="xaxislayer-below"/><g class="yaxislayer-below"/><g class="overaxes-below"/><g class="overplot"><g class="xy" transform="translate(60,30)" clip-path="url(#clip92f09dxyplot)"><g class="scatterlayer mlayer"><g class="trace scatter trace3b1008" style="stroke-miterlimit: 2; opacity: 1;"><g class="fills"/><g class="errorbars"/><g class="lines"><path class="js-line" d="M0,311.33L0.66,313.14L0.8,312.88L0.93,312.69L2.92,313.22L3.06,313.23L4.52,313.14L4.65,313.14L6.11,313.07L6.24,312.99L9.56,312.27L9.7,312.13L11.69,309.59L11.82,309.66L12.89,309.45L13.02,309.45L13.95,309.88L14.08,310.61L15.54,311.76L15.68,311.69L18.2,312.34L18.33,312.56L19.53,312.85L19.66,312.92L22.98,311.76L23.11,311.69L24.84,311.55L24.97,311.69L29.36,313.21L29.49,313.14L43.17,312.85L43.31,312.63L47.56,312.05L47.69,312.05L49.02,312.05L49.15,312.2L53.14,312.7L53.27,312.63L58.72,313.43L58.85,313.28L70.41,312.63L70.54,312.41L71.47,312.13L71.6,311.98L72.4,312.13L72.53,311.91L72.66,311.91L73.99,311.91L74.12,312.05L75.72,312.7L75.85,312.56L85.95,313.21L86.08,313.36L117.56,312.78L117.7,312.56L119.69,311.91L119.82,311.76L121.95,310.68L122.08,310.89L122.21,310.89L123.14,310.61L123.28,310.46L125.14,309.23L125.27,309.45L129.65,313.28L129.78,313.21L151.7,312.56L151.84,312.49L153.03,312.56L153.16,312.56L161.8,312.49L161.93,312.34L164.99,312.13L165.12,311.84L166.05,311.91L166.18,311.91L167.78,311.84L167.91,311.91L168.97,312.41L169.1,312.7L170.43,313.07L170.57,313.07L172.16,312.92L172.29,312.92L174.15,312.7L174.29,312.78L175.88,312.92L176.01,313.07L187.97,312.63L188.1,312.56L189.96,312.85L190.09,312.92L191.02,312.7L191.16,312.7L195.67,312.2L195.81,312.27L197.13,311.91L197.27,311.84L199.26,312.34L199.39,312.41L201.92,312.99L202.05,313.14L208.16,312.27L208.29,312.34L209.36,312.49L209.49,312.49L210.42,312.2L210.55,312.2L212.28,312.49L212.41,312.56L213.47,312.49L213.61,312.78L215.73,312.63L215.86,312.56L218.26,312.63L218.39,312.7L219.85,312.78L219.98,312.78L225.56,311.47L225.69,311.62L227.55,311.47L227.69,311.76L227.95,312.2L228.35,311.47L228.48,311.26L230.08,310.97L230.21,310.97L231.94,311.18L232.07,311.33L234.2,311.84L234.33,311.4L235.52,311.11L235.66,310.97L236.19,310.32L236.32,310.75L236.45,310.89L238.58,309.74L238.71,309.45L239.64,309.81L239.78,309.81L239.91,310.32L240.57,309.95L240.71,309.88L242.43,310.24L242.57,310.46L243.5,310.75L243.63,310.68L247.21,311.91L247.35,311.84L248.14,311.26L248.28,311.11L249.47,310.53L249.61,310.39L250.93,310.82L251.07,310.89L252.26,311.69L252.4,311.84L253.72,311.26L253.86,310.97L255.58,308.87L255.72,309.09L256.65,307.93L256.78,307.93L257.18,306.41L257.31,305.97L258.24,303.08L258.37,303.37L258.51,303.59L258.64,304.24L259.04,303.08L259.17,303.01L259.7,302.79L259.83,303.3L259.97,303.3L261.16,301.56L261.3,301.2L261.56,302.5L262.09,302.14L262.23,302.07L262.76,301.85L262.89,302.36L263.02,302.86L264.48,304.24L264.62,304.89L266.61,312.05L266.74,312.05L267.94,311.98L268.07,311.84L269.27,311.91L269.4,311.98L270.33,311.55L270.46,311.76L270.59,311.84L273.38,312.49L273.52,312.63L278.83,311.76L278.96,311.91L280.16,311.98L280.29,311.26L281.35,310.46L281.49,310.46L284.28,310.61L284.41,310.89L285.74,311.04L285.87,310.75L287.2,310.68L287.33,310.32L288.13,309.66L288.4,310.1L288.53,310.24L289.32,309.95L289.46,309.3L290.65,307.93L290.79,307.86L291.32,308.58L291.58,308.07L291.72,307.49L292.11,307.71L292.25,307.42L292.38,306.91L293.31,306.12L293.44,306.48L293.58,306.77L294.11,307.2L294.24,306.7L294.37,306.48L295.57,306.7L295.7,307.28L297.16,308.14L297.3,308.65L298.36,310.53L298.62,310.1L298.76,309.81L299.02,308.8L299.55,309.09L299.69,309.01L300.48,307.42L300.62,307.64L302.87,296.49L303.01,294.9L304.07,284.63L304.2,284.26L305.8,278.55L306.06,279.78L306.2,280.14L308.59,227.02L308.72,225.43L310.18,215.15L310.31,217.11L310.45,220.8L312.31,263.93L312.44,263.13L312.7,262.12L312.84,257.92L313.9,251.91L314.03,253.8L314.17,254.88L315.36,258.07L315.49,259.51L315.89,261.39L316.03,262.26L318.15,289.26L318.28,288.75L318.42,288.03L319.21,290.56L319.48,289.69L319.61,289.84L321.07,296.35L321.34,294.97L321.47,294.97L323.86,303.22L324,302.93L324.13,302.86L325.06,302.07L325.19,303.01L326.65,305.11L326.79,304.67L326.92,304.09L328.25,302.93L328.38,303.15L328.51,304.16L328.91,302.64L329.04,301.92L330.64,298.23L330.77,298.23L332.23,300.91L332.36,300.84L332.5,300.62L334.09,305.54L334.49,304.96L334.62,304.67L335.15,304.89L335.29,304.74L335.42,304.09L336.35,303.44L336.48,303.73L336.62,304.31L337.15,303.95L337.55,304.53L337.68,304.6L338.21,303.37L338.34,302.93L339.01,303.88L339.14,303.73L339.27,303.44L340.07,302.36L340.2,302.64L340.6,302.43L340.73,302.07L341.13,302.43L341.27,301.92L341.4,301.34L342.06,299.32L342.2,300.26L342.33,301.05L342.59,301.49L342.86,301.13L342.99,299.89L343.26,300.47L343.39,302.07L345.91,306.7L346.05,307.28L346.18,307.2L346.31,305.32L346.58,304.24L346.98,305.54L347.11,305.54L349.37,302.43L349.5,301.27L350.17,300.55L350.3,301.56L350.43,301.99L350.7,300.4L350.83,299.97L351.49,298.88L351.63,298.74L352.16,297.87L352.56,298.38L352.69,298.52L353.35,298.09L353.49,299.17L356.41,306.19L356.54,305.97L357.21,305.54L357.34,306.12L358.93,304.74L359.07,305.18L360.66,303.3L360.79,299.82L361.06,299.97L361.32,299.61L361.46,299.46L362.39,298.59L362.52,298.09L363.18,297.8L363.32,298.01L363.45,298.23L363.85,299.75L364.25,298.88L364.38,298.88L364.65,299.24L364.78,302.93L365.84,303.51L365.97,303.15L366.37,302.86L366.5,303.59L366.64,303.66L367.83,302.5L367.97,302.93L368.1,303.22L368.36,302.21L368.5,302.07L369.43,300.62L369.56,300.76L369.69,300.62L369.96,297.8L370.49,298.45L370.62,298.52L371.95,299.17L372.08,298.59L373.28,301.85L373.41,302.07L373.68,301.78L373.81,301.92L373.94,304.16L374.08,303.95L374.34,304.38L374.48,304.74L375.54,304.74L375.67,305.11L376.87,305.61L377,305.25L377.13,305.25L377.4,304.96L377.66,305.68L377.8,306.48L378.73,306.26L378.86,305.83L379.66,305.39L379.79,305.83L379.92,305.97L380.05,306.34L380.59,305.68L380.72,305.68L383.11,301.63L383.24,301.85L383.38,301.99L384.57,300.4L384.7,299.97L386.17,303.01L386.3,302.72L386.43,302.5L386.7,302.28L386.83,302.79L386.96,303.59L387.23,304.02L387.63,303.73L387.76,303.59L388.56,305.9L388.69,306.55L389.62,307.49L389.75,308L390.42,308.14L390.55,308.65L391.48,309.95L391.61,309.95L392.67,310.32L392.81,310.17L394.93,310.39L395.07,310.1L396.66,309.09L396.79,309.23L396.93,309.16L398.39,308.07L398.52,307.93L401.18,310.68L401.31,310.53L403.83,311.18L403.97,311.04L406.36,309.74L406.49,309.52L409.81,308.8L409.94,306.77L410.74,304.6L410.87,304.82L411.01,304.82L411.8,304.31L411.94,303.66L413.8,303.37L413.93,305.32L414.06,306.84L414.73,306.63L414.86,306.91L415.79,306.05L415.92,306.41L416.98,304.31L417.12,303.95L418.05,302.43L418.31,303.01L418.45,303.08L418.84,303.08L418.98,303.51L419.11,303.66L422.16,309.38L422.3,309.74L423.09,309.45L423.23,309.66L423.36,309.81L423.76,309.74L423.89,308.51L424.69,308L424.82,308.29L424.95,308.22L427.61,307.49L427.74,307.86L428.67,309.66L428.81,309.81L429.87,310.46L430,310.46L430.8,310.17L430.93,310.1L431.99,310.1L432.13,309.16L434.25,306.12L434.39,306.41L434.52,306.84L434.92,305.68L435.05,305.32L435.98,305.18L436.11,304.96L437.04,306.55L437.18,306.91L439.3,309.09L439.43,309.09L439.97,309.81L440.1,311.04L441.43,311.26L441.56,311.11L444.35,307.06L444.48,306.63L445.15,304.16L445.68,304.45L445.81,304.74L445.94,304.96L446.08,303.73L446.21,302.57L447.94,286.8L448.07,286.8L448.2,286.65L448.47,287.38L448.6,287.45L449.26,288.89L449.4,287.81L449.53,286.94L449.93,285.71L450.06,286.87L450.19,288.32L451.79,304.38L451.92,304.67L453.12,305.18L453.25,304.96L453.91,307.86L454.31,307.35L454.44,307.42L454.98,308.65L455.24,307.64L455.37,307.42L457.9,303.22L458.03,303.15L458.83,300.84L458.96,300.47L459.76,301.2L459.89,301.13L460.02,300.55L460.16,300.04L460.42,300.98L460.56,300.98L460.69,301.13L462.15,300.62L462.28,300.98L462.42,301.49L463.74,303.08L463.88,303.22L464.27,305.03L464.81,304.6L464.94,304.53L465.87,304.96L466,305.47L466.4,305.32L466.8,306.19L466.93,305.83L467.6,305.83L467.73,305.61L467.86,305.68L469.85,306.91L469.99,306.55L470.25,305.68L470.78,305.83L470.92,306.26L472.38,307.42L472.51,307.2L473.04,306.77L473.31,307.13L473.44,307.57L474.37,309.38L474.5,309.23L474.64,308.94L475.96,307.2L476.23,307.42L476.36,307.49L476.76,308.36L477.16,307.78L477.29,307.78L478.49,307.64L478.62,308L479.42,308.51L479.55,308.14L479.68,307.71L480.35,308.07L480.48,307.13L480.75,306.48L481.01,307.28L481.28,306.7L481.41,306.41L482.21,306.48L482.34,306.77L483.54,306.41L483.67,306.84L484.86,309.01L485.13,308.72L485.26,308.51L486.86,308L486.99,308.22L487.65,308.94L487.92,308.65L488.05,308.58L488.72,307.71L488.85,307.35L489.38,308.36L489.51,308.22L489.65,306.99L490.98,303.95L491.11,303.59L493.5,292.95L493.63,291.57L495.49,278.33L495.63,278.62L495.76,278.47L496.16,277.61L496.29,278.11L496.42,278.84L497.22,280.28L497.35,281.73L499.74,301.49L499.88,301.49L500.41,301.05L500.54,301.34L500.67,300.33L501.87,293.74L502,290.99L502.93,227.74L503.06,213.2L503.73,167.68L503.86,152.05L505.85,21.78L505.99,21.42L506.39,16.5L506.52,27.57L506.65,38.93L510.37,238.89L510.5,243.09L511.83,262.48L511.96,262.7L513.56,278.76L513.69,278.91L515.95,293.53L516.08,293.02L516.61,292.95L516.75,291.79L517.94,296.13L518.07,296.28L518.34,297.29L518.74,296.49L518.87,296.35L519.93,297.51L520.07,298.23L520.6,299.75L520.73,301.13L522.06,303.8L522.19,303.59L522.33,303.44L522.46,303.8L522.59,305.03L523.12,306.48L523.39,305.97L523.52,305.32L523.92,304.89L524.05,304.67L526.18,304.09L526.31,304.16L527.24,305.25L527.37,305.9L528.44,307.93L528.57,308L529.23,308.36L529.37,308.58L530.3,308.43L530.43,308.51L531.62,307.78L531.76,307.93L531.89,308.29L532.95,309.52L533.09,309.52L534.68,310.24L534.81,310.32L535.08,310.46L535.34,309.95L535.48,309.88L535.74,310.1L536.14,309.66L536.27,309.45L537.47,308.29L537.6,308.14L538.67,306.77L538.8,306.63L540.13,305.97L540.26,306.05L540.66,306.48L540.92,305.83L541.06,305.83L541.32,305.39L541.59,306.19L541.85,305.83L541.99,306.05L542.78,304.53L542.92,304.6L543.05,304.82L543.45,305.03L545.71,297.51L545.84,297.58L545.97,297.65L546.24,298.38L546.64,297.43L546.77,297.43L547.43,296.57L547.57,296.78L547.7,297.51L549.03,300.4L549.16,300.55L549.82,301.85L550.09,301.2L550.22,300.84L550.75,301.92L550.89,301.41L551.02,300.69L552.08,297.94L552.21,298.01L552.35,298.59L552.61,299.24L552.88,298.59L553.01,297.87L553.81,296.64L553.94,296.78L554.07,296.86L554.74,296.35L555,296.93L555.14,297.29L555.27,298.3L555.8,297.07L555.93,297.36L556.2,297.87L556.6,297.22L556.73,297.29L557.4,300.33L558.06,300.04L558.19,300.33L558.72,300.4L558.86,300.62L558.99,300.84L559.52,300.62L559.92,301.85L560.05,301.49L560.58,301.13L560.72,301.49L560.85,301.78L561.65,301.13L561.78,301.56L561.91,301.85L562.44,301.34L562.71,301.7L562.84,301.78L563.64,300.11L563.77,297.94L564.17,296.2L564.57,296.71L564.7,296.78L564.83,295.84L564.97,287.3L567.36,290.56L567.49,291.07L568.82,297.58L568.95,306.05L572.67,308.65L572.8,308.51L573.6,309.38L573.73,309.16L573.87,309.16L575.2,309.38L575.33,308.87L576.26,308.51L576.39,308.36L577.19,308L577.32,307.78L578.25,306.91L578.38,306.77L578.65,307.06L578.78,306.91L578.92,306.26L579.18,305.61L579.45,306.55L579.58,306.55L579.71,306.55L580.91,305.61L581.04,305.9L582.5,307.86L582.64,307.64L582.77,306.99L583.3,307.93L583.56,307.28L583.7,307.06L585.16,308.22L585.29,308.07L586.49,305.61L586.62,305.68L586.75,306.41L587.82,307.35L587.95,307.28L589.14,306.12L589.28,306.34L589.81,307.2L590.07,306.7L590.21,306.05L590.34,305.9L590.74,306.26L590.87,306.48L591.8,305.11L592.07,305.61L592.2,305.76L593,306.19L593.13,305.76L593.26,305.25L594.06,305.39L594.19,306.12L595.12,306.91L595.25,307.06L596.32,307.42L596.45,307.49L596.98,307.49L597.11,307.86L597.25,308.22L598.44,308.36L598.58,308.43L599.51,307.78L599.64,308.07L600.97,308.8L601.1,308.72L602.43,309.66L602.56,309.66L603.62,311.04L603.76,311.11L604.95,310.17L605.08,310.46L608.27,306.77L608.41,306.77L610,306.34" style="vector-effect: none; fill: none; stroke: rgb(30, 61, 88); stroke-opacity: 1; stroke-width: 2.5px; opacity: 1;"/></g><g class="points"/><g class="text"/></g></g></g></g><g class="zerolinelayer-above"/><path class="xlines-above crisp" d="M0,0" style="fill: none;"/><path class="ylines-above crisp" d="M0,0" style="fill: none;"/><g class="overlines-above"/><g class="xaxislayer-above"><g class="xtick"><text text-anchor="middle" x="0" y="373" transform="translate(96,0)" style="font-family: Inter, 'Segoe UI', sans-serif; font-size: 12px; fill: rgb(30, 41, 59); fill-opacity: 1; white-space: pre;">2014</text></g><g class="xtick"><text text-anchor="middle" x="0" y="373" style="font-family: Inter, 'Segoe UI', sans-serif; font-size: 12px; fill: rgb(30, 41, 59); fill-opacity: 1; white-space: pre;" transform="translate(192.97,0)">2016</text></g><g class="xtick"><text text-anchor="middle" x="0" y="373" style="font-family: Inter, 'Segoe UI', sans-serif; font-size: 12px; fill: rgb(30, 41, 59); fill-opacity: 1; white-space: pre;" transform="translate(290.08000000000004,0)">2018</text></g><g class="xtick"><text text-anchor="middle" x="0" y="373" style="font-family: Inter, 'Segoe UI', sans-serif; font-size: 12px; fill: rgb(30, 41, 59); fill-opacity: 1; white-space: pre;" transform="translate(387.05,0)">2020</text></g><g class="xtick"><text text-anchor="middle" x="0" y="373" style="font-family: Inter, 'Segoe UI', sans-serif; font-size: 12px; fill: rgb(30, 41, 59); fill-opacity: 1; white-space: pre;" transform="translate(484.16,0)">2022</text></g><g class="xtick"><text text-anchor="middle" x="0" y="373" style="font-family: Inter, 'Segoe UI', sans-serif; font-size: 12px; fill: rgb(30, 41, 59); fill-opacity: 1; white-space: pre;" transform="translate(581.13,0)">2024</text></g></g><g class="yaxislayer-above"><g class="ytick"><text text-anchor="end" x="59" y="4.199999999999999" transform="translate(0,343.5)" style="font-family: Inter, 'Segoe UI', sans-serif; font-size: 12px; fill: rgb(30, 41, 59); fill-opacity: 1; white-space: pre;">0</text></g><g class="ytick"><text text-anchor="end" x="59" y="4.199999999999999" style="font-family: Inter, 'Segoe UI', sans-serif; font-size: 12px; fill: rgb(30, 41, 59); fill-opacity: 1; white-space: pre;" transform="translate(0,300.08)">20</text></g><g class="ytick"><text text-anchor="end" x="59" y="4.199999999999999" style="font-family: Inter, 'Segoe UI', sans-serif; font-size: 12px; fill: rgb(30, 41, 59); fill-opacity: 1; white-space: pre;" transform="translate(0,256.65999999999997)">40</text></g><g class="ytick"><text text-anchor="end" x="59" y="4.199999999999999" style="font-family: Inter, 'Segoe UI', sans-serif; font-size: 12px; fill: rgb(30, 41, 59); fill-opacity: 1; white-space: pre;" transform="translate(0,213.24)">60</text></g><g class="ytick"><text text-anchor="end" x="59" y="4.199999999999999" style="font-family: Inter, 'Segoe UI', sans-serif; font-size: 12px; fill: rgb(30, 41, 59); fill-opacity: 1; white-space: pre;" transform="translate(0,169.82)">80</text></g><g class="ytick"><text text-anchor="end" x="59" y="4.199999999999999" style="font-family: Inter, 'Segoe UI', sans-serif; font-size: 12px; fill: rgb(30, 41, 59); fill-opacity: 1; white-space: pre;" transform="translate(0,126.39)">100</text></g><g class="ytick"><text text-anchor="end" x="59" y="4.199999999999999" style="font-family: Inter, 'Segoe UI', sans-serif; font-size: 12px; fill: rgb(30, 41, 59); fill-opacity: 1; white-space: pre;" transform="translate(0,82.97)">120</text></g><g class="ytick"><text text-anchor="end" x="59" y="4.199999999999999" style="font-family: Inter, 'Segoe UI', sans-serif; font-size: 12px; fill: rgb(30, 41, 59); fill-opacity: 1; white-space: pre;" transform="translate(0,39.55)">140</text></g></g><g class="overaxes-above"/></g></g><g class="polarlayer"/><g class="smithlayer"/><g class="ternarylayer"/><g class="geolayer"/><g class="funnelarealayer"/><g class="pielayer"/><g class="iciclelayer"/><g class="treemaplayer"/><g class="sunburstlayer"/><g class="glimages"/><defs id="topdefs-92f09d"><g class="clips"/></defs><g class="layer-above"><g class="imagelayer"/><g class="shapelayer"/></g><g class="infolayer"><g class="g-gtitle"/><g class="g-xtitle"/><g class="g-ytitle"/></g></svg>