<svg class="main-svg" xmlns="http://www.w3.org/2000/svg" xmlns:xlink="http://www.w3.org/1999/xlink" width="700" height="420" style="" viewBox="0 0 700 420"><rect x="0" y="0" width="700" height="420" style="fill: rgb(0, 0, 0); fill-opacity: 0;"/><defs id="defs-4ec0a8"><g class="clips"><clipPath id="clip4ec0a8xyplot" class="plotclip"><rect width="610" height="330"/></clipPath><clipPath class="axesclip" id="clip4ec0a8x"><rect x="60" y="0" width="610" height="420"/></clipPath><clipPath class="axesclip" id="clip4ec0a8y"><rect x="0" y="30" width="700" height="330"/></clipPath><clipPath class="axesclip" id="clip4ec0a8xy"><rect x="60" y="30" width="610" height="330"/></clipPath></g><g class="gradients"/><g class="patterns"/></defs><g class="bglayer"><rect class="bg" x="60" y="30" width="610" height="330" style="fill: rgb(0, 0, 0); fill-opacity: 0; stroke-width: 0;"/></g><g class="layer-below"><g class="imagelayer"/><g class="shapelayer"/></g><g class="cartesianlayer"><g class="subplot xy"><g class="layer-subplot"><g class="shapelayer"/><g class="imagelayer"/></g><g class="minor-gridlayer"><g class="x"/><g class="y"/></g><g class="gridlayer"><g class="x"><path class="xgrid crisp" transform="translate(164.82,0)" d="M0,30v330" style="stroke: rgb(255, 255, 255); stroke-opacity: 1; stroke-width: 1px;"/><path class="xgrid crisp" transform="translate(269.35,0)" d="M0,30v330" style="stroke: rgb(255, 255, 255); stroke-opacity: 1; stroke-width: 1px;"/><path class="xgrid crisp" transform="translate(373.88,0)" d="M0,30v330" style="stroke: rgb(255, 255, 255); stroke-opacity: 1; stroke-width: 1px;"/><path class="xgrid crisp" transform="translate(478.41,0)" d="M0,30v330" style="stroke: rgb(255, 255, 255); stroke-opacity: 1; stroke-width: 1px;"/><path class="xgrid crisp" transform="translate(583.23,0)" d="M0,30v330" style="stroke: rgb(255, 255, 255); stroke-opacity: 1; stroke-width: 1px;"/></g><g class="y"><path class="ygrid crisp" transform="translate(0,301.57)" d="M60,0h610" style="stroke: rgb(255, 255, 255); stroke-opacity: 1; stroke-width: 1px;"/><path class="ygrid crisp" transform="translate(0,257.89)" d="M60,0h610" style="stroke: rgb(255, 255, 255); stroke-opacity: 1; stroke-width: 1px;"/><path class="ygrid crisp" transform="translate(0,214.22)" d="M60,0h610" style="stroke: rgb(255, 255, 255); stroke-opacity: 1; stroke-width: 1px;"/><path class="ygrid crisp" transform="translate(0,170.54)" d="M60,0h610" style="stroke: rgb(255, 255, 255); stroke-opacity: 1; stroke-width: 1px;"/><path class="ygrid crisp" transform="translate(0,126.86)" d="M60,0h610" style="stroke: rgb(255, 255, 255); stroke-opacity: 1; stroke-width: 1px;"/><path class="ygrid crisp" transform="translate(0,83.19)" d="M60,0h610" style="stroke: rgb(255, 255, 255); stroke-opacity: 1; stroke-width: 1px;"/><path class="ygrid crisp" transform="translate(0,39.51)" d="M60,0h610" style="stroke: rgb(255, 255, 255); stroke-opacity: 1; stroke-width: 1px;"/></g></g><g class="zerolinelayer"><path class="yzl zl crisp" transform="translate(0,345.25)" d="M60,0h610" style="stroke: rgb(255, 255, 255); stroke-opacity: 1; stroke-width: 2px;"/></g><g class="layer-between"><g class="shapelayer"/><g class="imagelayer"/></g><path class="xlines-below"/><path class="ylines-below"/><g class="overlines-below"/><g class="xaxislayer-below"/><g class="yaxislayer-below"/><g class="overaxes-below"/><g class="overplot"><g class="xy" transform="translate(60,30)" clip-path="url(#clip4ec0a8xyplot)"><g class="scatterlayer mlayer"><g class="trace scatter trace126703" style="stroke-miterlimit: 2; opacity: 1;"><g class="fills"/><g class="errorbars"/><g class="lines"><path class="js-line" d="M0,306.51L0.29,303.24L0.86,303.78L1.15,302.58L1.43,301.42L2,301.6L2.29,302.14L2.58,301.05L2.86,301.95L3.15,302.69L4.58,298.68L4.87,298.99L5.15,299.62L6.59,299.14L6.87,299.52L8.31,300.25L8.59,300.4L11.46,302.51L11.74,302.29L12.31,303.02L12.6,303.67L14.32,305.93L14.61,306.07L15.18,307.24L15.46,307.02L15.75,306.88L17.18,306.58L17.47,306.58L20.33,305.42L20.62,306L21.48,306.07L21.77,305.64L23.77,305.86L24.06,305.06L24.34,304.62L24.63,304.84L24.92,305.49L26.06,305.42L26.35,305.13L26.92,304.26L27.21,304.91L27.78,304.47L28.07,304.04L28.64,304.4L28.92,304.11L29.21,304.11L30.07,303.89L30.36,304.11L32.36,300.98L32.65,301.93L33.51,303.16L33.79,302.73L34.08,302.8L34.37,301.56L34.94,302.14L35.23,303.75L40.09,307.46L40.38,307.82L41.24,308.91L41.53,307.02L42.1,305.93L42.38,306.15L42.67,306.15L43.24,307.24L43.53,307.09L43.82,306.95L44.39,306.66L44.68,306.15L45.54,305.71L45.82,305.27L47.54,304.98L47.83,304.47L49.83,302.22L50.12,303.24L50.4,303.67L50.69,303.09L50.98,302.07L52.69,300.54L52.98,300.4L53.55,299.74L53.84,299.6L54.99,300.03L55.27,300.18L56.7,299.74L56.99,300.83L58.14,301.56L58.42,301.2L60.14,305.42L60.43,304.91L60.71,304.98L61,306L61.57,305.78L61.86,305.93L63.29,307.89L63.58,307.68L66.44,307.39L66.73,306.8L67.59,307.17L67.87,306.8L68.73,306.44L69.02,306.88L70.45,306.15L70.74,305.78L72.46,304.98L72.74,301.49L73.6,301.34L73.89,301.27L75.03,300.83L75.32,301.49L77.9,299.45L78.18,299.67L79.33,301.42L79.62,300.76L79.9,300.62L81.05,300.91L81.33,304.62L82.19,305.13L82.48,304.76L82.77,304.91L85.06,305.27L85.34,305.35L88.21,304.62L88.49,304.91L89.92,302.73L90.21,302.73L91.36,302.29L91.64,302.44L92.22,301.34L92.5,299.45L93.36,300.54L93.65,300.11L93.93,300.18L96.51,300.98L96.8,300.83L97.08,300.25L97.37,301.2L97.66,301.05L98.8,302.14L99.09,302.73L100.52,303.45L100.81,303.6L101.67,305.86L101.95,306.07L102.81,306.29L103.1,306.07L107.11,307.39L107.39,307.31L108.54,306.66L108.83,307.02L110.26,308.33L110.54,308.11L113.41,307.09L113.69,307.53L114.84,307.68L115.13,307.6L116.85,307.02L117.13,307.46L118.85,304.62L119.14,305.06L120.28,304.26L120.57,303.53L121.43,303.67L121.71,303.67L124,302.07L124.29,301.63L126.3,303.38L126.58,303.16L127.44,304.69L127.73,304.4L128.01,304.18L128.87,304.47L129.16,305.27L130.02,305.49L130.31,305.27L132.02,306.58L132.31,307.17L133.74,308.33L134.03,308.33L136.89,310.37L137.18,310.95L139.47,311.83L139.76,311.97L140.9,311.75L141.19,312.04L144.91,312.41L145.2,312.7L146.06,312.34L146.34,312.12L147.77,311.68L148.06,311.53L151.21,310.81L151.5,310.73L154.93,310.01L155.22,310.22L156.37,310.66L156.65,310.73L157.51,311.61L157.8,311.9L159.23,312.34L159.52,312.41L161.52,312.7L161.81,313.06L163.81,313.28L164.1,313.28L173.26,311.1L173.55,311.24L176.7,310.73L176.99,310.37L178.42,310.52L178.7,308.48L179.85,306.44L180.14,306.29L182.71,306L183,305.35L184.72,305.27L185,304.98L185.86,305.71L186.15,305.27L186.44,305.13L187.01,305.06L187.3,307.02L187.58,308.55L188.15,308.11L188.44,308.33L189.87,308.19L190.16,307.89L191.59,308.11L191.88,307.31L195.89,305.06L196.17,304.11L197.61,304.84L197.89,304.76L199.32,305.64L199.61,305.64L200.18,305.93L200.47,306.73L203.62,309.13L203.91,309.42L204.77,310.66L205.05,311.1L205.91,311.46L206.2,311.24L208.49,311.46L208.77,310.22L210.49,309.71L210.78,310.01L216.51,309.06L216.79,309.21L218.8,311.32L219.08,311.39L221.95,312.19L222.23,312.19L223.09,311.9L223.38,311.9L226.24,311.83L226.53,310.88L228.25,309.57L228.54,308.84L231.4,308.11L231.69,308.55L233.98,307.02L234.26,306.88L236.55,306.95L236.84,307.68L237.99,308.7L238.27,308.77L240.56,309.79L240.85,310.44L242.28,310.81L242.57,310.88L243.43,311.53L243.71,312.77L246.58,312.99L246.86,312.84L250.3,310.73L250.59,310.01L253.45,308.04L253.74,307.53L254.88,305.93L255.17,306.07L256.31,306.66L256.6,305.42L258.03,299.09L258.32,296.32L259.75,288.97L260.04,288.82L261.18,288.24L261.47,288.53L263.47,290.5L263.76,289.41L264.91,287.29L265.19,288.46L266.91,297.63L267.2,300.83L268.34,305.93L268.63,305.86L270.35,306.44L270.63,306.22L272.35,307.53L272.64,308.55L273.78,309.42L274.07,309.13L274.93,309.64L275.22,309.86L275.79,310.37L276.08,310.15L276.36,309.35L278.65,306.73L278.94,306.37L279.8,306.15L280.08,306L283.81,303.31L284.09,302.51L284.67,302.14L284.95,302.8L286.96,301.71L287.24,302.29L287.53,302.65L290.97,302.65L291.25,302.29L293.83,304.55L294.12,304.47L294.98,304.91L295.26,305.71L295.84,306.73L296.12,306.07L296.41,306.15L297.55,306.29L297.84,306.29L299.85,307.89L300.13,307.46L300.42,307.02L300.7,307.24L300.99,307.6L301.85,307.68L302.14,307.46L303.85,307.39L304.14,307.6L307.86,308.62L308.15,308.26L308.72,307.39L309.01,307.53L309.3,307.68L311.01,308.33L311.3,308.91L312.45,309.35L312.73,308.99L313.88,308.84L314.16,308.48L315.31,308.84L315.6,309.28L316.17,309.79L316.46,309.57L316.74,309.64L317.89,310.95L318.17,310.66L319.89,309.79L320.18,309.79L320.75,309.42L321.04,308.91L322.76,310.08L323.04,309.79L324.19,309.42L324.47,309.42L325.33,309.5L325.62,309.64L327.34,309.86L327.62,310.15L328.48,310.22L328.77,309.86L329.34,309.5L329.63,309.93L330.77,308.84L331.06,308.26L331.63,308.62L331.92,308.99L333.35,308.04L333.64,308.19L337.93,308.84L338.22,308.99L339.37,309.86L339.65,310.52L340.8,310.44L341.08,310.22L344.52,309.71L344.81,309.93L346.24,310.66L346.53,310.52L349.1,309.42L349.39,309.64L350.25,309.93L350.54,308.7L351.39,307.39L351.68,307.53L351.97,307.39L353.11,305.78L353.4,305.64L356.26,301.85L356.55,300.69L358.55,295.67L358.84,294.57L361.99,282.2L362.28,281.98L362.56,281.91L362.85,281.03L363.71,280.01L364,279.72L364.57,279.14L364.85,279.65L365.14,280.38L366.86,281.83L367.15,283.29L370.87,299.81L371.15,300.11L372.59,303.16L372.87,303.24L374.31,302L374.59,301.27L376.02,301.34L376.31,300.25L378.03,280.45L378.31,263.85L380.32,191.13L380.61,179.7L384.62,38.56L384.9,31.57L385.76,21.45L386.05,23.85L386.62,16.5L386.91,27.64L388.91,79.32L389.2,88.27L393.49,214.06L393.78,219.81L395.21,240.2L395.5,244.42L397.22,259.05L397.5,258.98L400.37,276.45L400.94,275.94L401.23,276.45L401.51,276.52L401.8,277.83L403.52,287.08L403.8,287.95L405.52,292.17L405.81,292.24L406.95,294.94L407.24,295.16L407.81,294.57L408.1,295.01L408.38,294.86L408.96,293.41L409.24,294.28L410.1,297.56L410.39,297.27L410.68,297.34L412.68,298.58L412.97,297.92L414.97,298.72L415.26,298.5L415.83,299.16L416.12,299.89L417.26,301.42L417.55,302.8L419.55,305.13L419.84,305.13L421.27,305.49L421.56,306.73L422.7,308.19L422.99,308.11L424.71,306.37L425,306.29L427.29,305.71L427.57,305.49L429.29,305.78L429.58,305.86L431.58,306.95L431.87,307.6L433.3,309.35L433.59,309.42L434.45,309.71L434.73,309.71L435.88,310.08L436.16,310.3L437.88,310.08L438.17,310.15L439.6,309.79L439.89,309.79L441.89,310.44L442.18,310.59L448.77,312.04L449.05,311.68L451.63,310.81L451.92,310.37L453.35,310.44L453.63,310.01L459.08,307.6L459.36,307.68L460.79,308.04L461.08,307.53L462.23,307.6L462.51,307.89L466.23,306.44L466.52,306.73L467.38,305.42L467.67,304.33L469.96,301.49L470.24,301.49L471.96,299.31L472.25,299.81L472.82,299.67L473.11,299.38L475.11,298.21L475.4,298.43L476.83,301.49L477.12,301.27L477.4,301.63L478.55,302.07L478.84,302.22L480.55,303.31L480.84,302.87L481.41,302.65L481.7,303.24L482.27,303.6L482.56,303.09L483.99,301.05L484.28,300.83L485.42,299.67L485.71,300.25L486.28,300.91L486.57,300.62L486.85,300.25L488,298.65L488.29,299.09L488.86,298.29L489.15,298.43L489.43,298.5L491.15,298.36L491.44,298.58L492.58,299.67L492.87,299.01L493.15,298.72L493.44,299.01L493.73,299.31L494.3,299.38L494.59,299.01L495.16,298.94L495.45,299.52L496.59,302L496.88,301.63L497.16,301.63L498.02,301.71L498.31,302L500.03,302.51L500.31,303.02L501.17,302.29L501.46,303.02L502.03,303.53L502.32,303.16L502.61,302.8L504.9,303.38L505.18,302.8L506.62,303.24L506.9,303.02L509.48,303.02L509.77,302.65L511.2,297.85L511.48,297.92L512.34,298.43L512.63,297.49L513.49,288.9L513.77,289.11L515.49,289.84L515.78,289.99L517.21,291.01L517.5,291.3L518.36,292.68L518.64,293.7L519.79,298.07L520.08,298.21L521.22,299.23L521.51,307.75L523.23,308.26L523.51,308.84L527.52,310.08L527.81,310.22L528.95,310.52L529.24,310.3L533.54,310.95L533.82,310.73L534.68,311.39L534.97,311.1L536.11,310.52L536.4,310.73L538.69,310.01L538.98,309.79L542.99,307.97L543.27,307.39L543.85,307.97L544.13,308.26L547,307.6L547.28,307.31L550.43,309.57L550.72,309.57L551.58,308.7L551.86,309.21L552.44,309.64L552.72,309.28L553.01,308.99L553.87,309.06L554.15,309.5L555.3,309.64L555.59,309.71L556.45,309.93L556.73,309.79L557.31,309.06L557.59,308.99L559.6,307.39L559.88,308.11L560.74,308.48L561.03,308.48L562.75,308.7L563.03,308.33L565.61,308.04L565.9,308.77L567.04,308.4L567.33,307.75L568.47,307.97L568.76,308.19L570.48,307.09L570.77,306.8L573.34,307.89L573.63,307.46L574.77,306.8L575.06,306.95L575.63,307.09L575.92,307.82L577.07,308.4L577.35,308.26L581.36,309.28L581.65,309.13L585.37,310.15L585.66,309.86L587.95,309.93L588.23,310.22L594.54,312.12L594.82,312.34L597.4,312.41L597.69,312.04L601.12,311.46L601.41,311.32L607.14,308.33L607.42,308.48L610,308.04" style="vector-effect: none; fill: none; stroke: rgb(30, 61, 88); stroke-opacity: 1; stroke-width: 2.5px; opacity: 1;"/></g><g class="points"/><g class="text"/></g></g></g></g><g class="zerolinelayer-above"/><path class="xlines-above crisp" d="M0,0" style="fill: none;"/><path class="ylines-above crisp" d="M0,0" style="fill: none;"/><g class="overlines-above"/><g class="xaxislayer-above"><g class="xtick"><text text-anchor="middle" x="0" y="373" transform="translate(60,0)" style="font-family: Inter, 'Segoe UI', sans-serif; font-size: 12px; fill: rgb(30, 41, 59); fill-opacity: 1; white-space: pre;">2020</text></g><g class="xtick"><text text-anchor="middle" x="0" y="373" style="font-family: Inter, 'Segoe UI', sans-serif; font-size: 12px; fill: rgb(30, 41, 59); fill-opacity: 1; white-space: pre;" transform="translate(164.82,0)">2021</text></g><g class="xtick"><text text-anchor="middle" x="0" y="373" style="font-family: Inter, 'Segoe UI', sans-serif; font-size: 12px; fill: rgb(30, 41, 59); fill-opacity: 1; white-space: pre;" transform="translate(269.35,0)">2022</text></g><g class="xtick"><text text-anchor="middle" x="0" y="373" style="font-family: Inter, 'Segoe UI', sans-serif; font-size: 12px; fill: rgb(30, 41, 59); fill-opacity: 1; white-space: pre;" transform="translate(373.88,0)">2023</text></g><g class="xtick"><text text-anchor="middle" x="0" y="373" style="font-family: Inter, 'Segoe UI', sans-serif; font-size: 12px; fill: rgb(30, 41, 59); fill-opacity: 1; white-space: pre;" transform="translate(478.41,0)">2024</text></g><g class="xtick"><text text-anchor="middle" x="0" y="373" style="font-family: Inter, 'Segoe UI', sans-serif; font-size: 12px; fill: rgb(30, 41, 59); fill-opacity: 1; white-space: pre;" transform="translate(583.23,0)">2025</text></g></g><g class="yaxislayer-above"><g class="ytick"><text text-anchor="end" x="59" y="4.199999999999999" transform="translate(0,345.25)" style="font-family: Inter, 'Segoe UI', sans-serif; font-size: 12px; fill: rgb(30, 41, 59); fill-opacity: 1; white-space: pre;">0</text></g><g class="ytick"><text text-anchor="end" x="59" y="4.199999999999999" style="font-family: Inter, 'Segoe UI', sans-serif; font-size: 12px; fill: rgb(30, 41, 59); fill-opacity: 1; white-space: pre;" transform="translate(0,301.57)">20</text></g><g class="ytick"><text text-anchor="end" x="59" y="4.199999999999999" style="font-family: Inter, 'Segoe UI', sans-serif; font-size: 12px; fill: rgb(30, 41, 59); fill-opacity: 1; white-space: pre;" transform="translate(0,257.89)">40</text></g><g class="ytick"><text text-anchor="end" x="59" y="4.199999999999999" style="font-family: Inter, 'Segoe UI', sans-serif; font-size: 12px; fill: rgb(30, 41, 59); fill-opacity: 1; white-space: pre;" transform="translate(0,214.22)">60</text></g><g class="ytick"><text text-anchor="end" x="59" y="4.199999999999999" style="font-family: Inter, 'Segoe UI', sans-serif; font-size: 12px; fill: rgb(30, 41, 59); fill-opacity: 1; white-space: pre;" transform="translate(0,170.54)">80</text></g><g class="ytick"><text text-anchor="end" x="59" y="4.199999999999999" style="font-family: Inter, 'Segoe UI', sans-serif; font-size: 12px; fill: rgb(30, 41, 59); fill-opacity: 1; white-space: pre;" transform="translate(0,126.86)">100</text></g><g class="ytick"><text text-anchor="end" x="59" y="4.199999999999999" style="font-family: Inter, 'Segoe UI', sans-serif; font-size: 12px; fill: rgb(30, 41, 59); fill-opacity: 1; white-space: pre;" transform="translate(0,83.19)">120</text></g><g class="ytick"><text text-anchor="end" x="59" y="4.199999999999999" style="font-family: Inter, 'Segoe UI', sans-serif; font-size: 12px; fill: rgb(30, 41, 59); fill-opacity: 1; white-space: pre;" transform="translate(0,39.51)">140</text></g></g><g class="overaxes-above"/></g></g><g class="polarlayer"/><g class="smithlayer"/><g class="ternarylayer"/><g class="geolayer"/><g class="funnelarealayer"/><g class="pielayer"/><g class="iciclelayer"/><g class="treemaplayer"/><g class="sunburstlayer"/><g class="glimages"/><defs id="topdefs-4ec0a8"><g class="clips"/></defs><g class="layer-above"><g class="imagelayer"/><g class="shapelayer"/></g><g class="infolayer"><g class="g-gtitle"/><g class="g-xtitle"/><g class="g-ytitle"/></g></svg>