<svg class="main-svg" xmlns="http://www.w3.org/2000/svg" xmlns:xlink="http://www.w3.org/1999/xlink" width="700" height="420" style="" viewBox="0 0 700 420"><rect x="0" y="0" width="700" height="420" style="fill: rgb(0, 0, 0); fill-opacity: 0;"/><defs id="defs-fcf87c"><g class="clips"><clipPath id="clipfcf87cxyplot" class="plotclip"><rect width="610" height="330"/></clipPath><clipPath class="axesclip" id="clipfcf87cx"><rect x="60" y="0" width="610" height="420"/></clipPath><clipPath class="axesclip" id="clipfcf87cy"><rect x="0" y="30" width="700" height="330"/></clipPath><clipPath class="axesclip" id="clipfcf87cxy"><rect x="60" y="30" width="610" height="330"/></clipPath></g><g class="gradients"/><g class="patterns"/></defs><g class="bglayer"><rect class="bg" x="60" y="30" width="610" height="330" style="fill: rgb(0, 0, 0); fill-opacity: 0; stroke-width: 0;"/></g><g class="layer-below"><g class="imagelayer"/><g class="shapelayer"/></g><g class="cartesianlayer"><g class="subplot xy"><g class="layer-subplot"><g class="shapelayer"/><g class="imagelayer"/></g><g class="minor-gridlayer"><g class="x"/><g class="y"/></g><g class="gridlayer"><g class="x"><path class="xgrid crisp" transform="translate(115.68,0)" d="M0,30v330" style="stroke: rgb(255, 255, 255); stroke-opacity: 1; stroke-width: 1px;"/><path class="xgrid crisp" transform="translate(227.8,0)" d="M0,30v330" style="stroke: rgb(255, 255, 255); stroke-opacity: 1; stroke-width: 1px;"/><path class="xgrid crisp" transform="translate(339.77,0)" d="M0,30v330" style="stroke: rgb(255, 255, 255); stroke-opacity: 1; stroke-width: 1px;"/><path class="xgrid crisp" transform="translate(451.89,0)" d="M0,30v330" style="stroke: rgb(255, 255, 255); stroke-opacity: 1; stroke-width: 1px;"/><path class="xgrid crisp" transform="translate(563.86,0)" d="M0,30v330" style="stroke: rgb(255, 255, 255); stroke-opacity: 1; stroke-width: 1px;"/></g><g class="y"><path class="ygrid crisp" transform="translate(0,287.57)" d="M60,0h610" style="stroke: rgb(255, 255, 255); stroke-opacity: 1; stroke-width: 1px;"/><path class="ygrid crisp" transform="translate(0,229.71)" d="M60,0h610" style="stroke: rgb(255, 255, 255); stroke-opacity: 1; stroke-width: 1px;"/><path class="ygrid crisp" transform="translate(0,171.86)" d="M60,0h610" style="stroke: rgb(255, 255, 255); stroke-opacity: 1; stroke-width: 1px;"/><path class="ygrid crisp" transform="translate(0,114)" d="M60,0h610" style="stroke: rgb(255, 255, 255); stroke-opacity: 1; stroke-width: 1px;"/><path class="ygrid crisp" transform="translate(0,56.14)" d="M60,0h610" style="stroke: rgb(255, 255, 255); stroke-opacity: 1; stroke-width: 1px;"/></g></g><g class="zerolinelayer"><path class="yzl zl crisp" transform="translate(0,345.43)" d="M60,0h610" style="stroke: rgb(255, 255, 255); stroke-opacity: 1; stroke-width: 2px;"/></g><g class="layer-between"><g class="shapelayer"/><g class="imagelayer"/></g><path class="xlines-below"/><path class="ylines-below"/><g class="overlines-below"/><g class="xaxislayer-below"/><g class="yaxislayer-below"/><g class="overaxes-below"/><g class="overplot"><g class="xy" transform="translate(60,30)" clip-path="url(#clipfcf87cxyplot)"><g class="scatterlayer mlayer"><g class="trace scatter trace37361d" style="stroke-miterlimit: 2; opacity: 1;"><g class="fills"/><g class="errorbars"/><g class="lines"><path class="js-line" d="M0,309.64L0.31,313.5L0.77,310.61L0.92,311.3L1.23,310.93L1.38,311.38L1.53,311.75L2.61,311.57L2.76,311.77L3.07,312.12L3.22,311.48L3.37,311.15L5.37,311.19L5.52,311.19L6.6,311.38L6.75,310.61L7.36,310.8L7.52,310.22L7.67,309.84L7.98,310.61L8.13,310.8L8.59,310.41L8.74,310.03L9.36,309.45L9.82,309.84L9.97,310.03L11.2,308.29L11.35,309.06L11.96,308.49L12.12,309.06L12.27,309.45L12.73,309.06L13.19,309.84L13.34,308.87L15.95,295.18L16.11,294.79L17.79,291.51L17.95,292.67L19.17,299.61L19.33,301.54L21.32,307.52L21.47,307.33L21.63,307.33L22.09,307.14L22.24,307.91L22.39,307.52L22.7,308.1L22.85,308.49L23.62,307.52L23.77,308.1L23.93,308.1L25.15,309.26L25.31,309.06L25.46,309.45L25.92,308.68L26.07,309.06L26.23,309.26L27.3,310.41L27.46,310.8L28.99,312.92L29.14,312.73L29.45,312.34L29.6,311.76L30.37,311.19L30.52,310.99L31.6,310.41L31.75,310.41L32.67,309.64L32.82,309.84L33.13,309.26L33.28,309.06L34.05,308.87L34.2,309.26L34.66,309.84L34.82,310.41L34.97,310.03L35.28,310.8L35.43,311.38L36.35,310.99L36.5,311.38L37.89,311.57L38.04,311.76L38.5,311.19L38.65,311.76L38.81,311.96L39.88,312.34L40.03,312.15L41.41,310.61L41.57,310.8L41.72,310.8L43.56,308.29L43.71,307.33L45.71,306.75L45.86,306.36L46.01,306.75L46.17,305.98L46.47,306.36L46.63,306.17L47.09,304.44L47.24,303.66L48.16,300.39L48.32,301.35L49.7,300.19L49.85,300.77L50.92,298.84L51.08,296.91L56.9,260.27L57.06,259.89L57.52,258.73L57.67,250.05L58.59,223.24L58.75,223.24L58.9,222.86L59.05,223.63L59.21,224.59L60.13,226.71L60.28,229.8L61.97,245.04L62.12,246L63.35,286.69L63.5,287.66L66.87,300.19L67.03,299.81L67.18,299.81L67.95,302.51L68.25,301.54L68.41,301.54L68.56,301.54L68.72,302.31L68.87,302.51L69.18,302.12L69.33,301.16L69.64,299.61L69.79,299.04L69.94,299.23L70.1,298.84L70.25,298.07L70.86,294.99L71.32,295.76L71.48,296.14L71.63,295.95L71.78,293.83L72.86,286.5L73.16,286.69L73.32,286.69L73.78,284.57L74.08,285.73L74.24,286.5L75,283.41L75.16,283.8L75.31,285.34L75.46,285.54L75.62,283.22L76.08,280.91L76.23,281.68L76.38,283.22L77.46,289.97L77.76,288.43L77.92,288.04L79.76,294.99L79.91,294.21L80.07,294.21L80.22,296.72L82.06,302.12L82.21,302.12L82.83,304.24L82.98,303.28L83.13,303.09L84.36,304.63L84.51,305.59L85.13,306.36L85.28,305.98L85.43,305.59L86.66,300.96L86.81,301.16L86.97,301.54L87.43,301.16L87.89,301.54L88.04,301.74L89.11,303.66L89.27,303.47L89.42,303.28L89.73,303.47L90.04,302.7L90.19,303.28L90.34,303.47L90.5,303.28L90.65,304.05L90.8,305.59L91.42,307.91L91.72,307.71L91.88,306.94L92.64,308.49L92.8,307.71L92.95,307.52L93.41,306.56L93.72,306.75L93.87,307.14L94.33,305.98L94.64,306.94L94.79,307.52L95.1,307.71L95.25,307.52L95.4,306.94L96.32,307.52L96.48,307.91L96.94,307.91L97.09,306.94L97.24,306.36L97.7,307.33L97.86,307.14L98.01,307.33L98.16,306.56L98.32,305.4L99.39,302.51L99.54,302.51L100.93,300.77L101.08,299.04L103.07,268.76L103.23,253.91L104.15,219.58L104.3,217.46L105.53,214.76L105.68,216.3L105.99,219.39L106.29,215.91L106.45,214.56L106.91,220.35L107.06,222.66L107.52,234.62L107.67,238.86L108.59,284.57L108.75,283.99L108.9,286.11L109.51,287.08L109.67,286.5L109.82,285.92L110.74,287.85L110.9,288.62L111.2,289.97L111.51,288.81L111.66,288.04L112.89,291.9L113.04,291.71L113.35,293.06L113.5,292.09L113.66,291.71L115.34,285.73L115.5,287.46L115.96,290.16L116.42,289.2L116.57,289.39L117.95,285.73L118.1,286.5L118.41,287.27L118.56,286.69L118.72,286.31L119.33,288.43L119.48,288.24L119.64,286.31L119.79,286.89L119.94,285.92L120.1,284.57L120.71,282.45L121.02,282.84L121.17,283.03L122.71,289.78L122.86,289.59L123.01,288.62L123.17,288.24L123.32,289.39L123.47,290.36L123.93,291.51L124.09,292.48L125.31,298.84L125.47,298.07L125.77,298.84L126.08,298.07L126.23,297.88L127.31,297.11L127.46,297.88L128.23,299.81L128.38,299.61L128.53,298.46L130.07,301.74L130.22,300.77L130.37,299.81L130.53,299.23L130.83,300.39L130.99,300.77L131.14,301.16L131.45,300.39L131.6,300.96L131.76,300.19L132.52,301.93L132.98,301.54L133.14,302.89L134.21,300.58L134.36,301.54L134.52,301.54L134.82,302.51L135.28,301.93L135.44,300.39L135.74,299.42L136.05,300.58L136.2,300.39L136.36,301.16L136.82,300.19L136.97,300L137.43,299.61L137.74,299.81L137.89,300.58L139.42,302.89L139.58,304.44L140.34,306.17L140.8,305.59L140.96,305.4L141.26,305.59L141.42,306.17L141.88,306.94L142.03,306.56L142.19,305.98L143.72,301.93L143.87,302.12L144.03,302.31L144.64,300.19L144.95,300.96L145.1,301.54L145.71,301.93L146.02,301.54L146.17,300.77L146.48,300.77L146.63,301.74L146.79,301.54L146.94,301.93L147.09,302.7L149.09,308.68L149.39,308.29L149.55,308.68L150.62,310.03L150.77,309.26L150.93,309.26L151.23,309.45L151.39,310.03L151.85,309.64L152,309.26L152.77,309.26L152.92,309.06L154,309.06L154.15,307.91L155.07,301.93L155.22,299.61L156.45,291.13L156.6,288.24L157.98,274.93L158.14,274.16L158.9,272.04L159.21,273L159.36,263.74L161.05,179.46L161.2,180.81L161.36,181.78L161.66,180.62L161.97,182.16L162.12,182.94L162.43,183.51L162.58,182.94L162.74,181.97L163.35,177.54L163.51,174.26L163.81,162.3L164.12,177.92L164.27,193.16L165.81,254.87L165.96,254.1L166.11,252.94L166.73,253.52L166.88,252.36L167.49,251.79L167.65,254.29L167.95,255.84L168.11,259.31L169.18,275.89L169.33,276.66L169.49,276.28L169.79,277.24L169.95,278.79L170.1,278.59L170.41,279.17L170.56,281.1L171.79,290.55L171.94,291.32L172.09,290.94L172.25,288.43L172.71,287.46L172.86,287.66L173.01,288.43L173.47,288.24L173.63,287.85L173.78,288.04L173.94,287.85L174.09,286.89L174.86,284.76L175.01,285.34L175.16,285.92L176.54,284.19L176.7,284.57L176.85,286.69L178.38,292.67L178.54,292.09L178.84,294.21L179.3,292.48L179.46,293.06L179.92,291.71L180.07,290.74L180.38,290.55L180.68,291.13L180.84,289.59L181.14,290.74L181.3,292.09L182.52,289.39L182.68,289.59L182.83,289.39L183.29,291.51L183.44,291.32L183.6,293.83L183.75,294.02L183.9,295.56L184.98,299.23L185.29,299.04L185.44,300.77L185.9,300.58L186.05,301.35L186.67,294.99L187.13,296.34L187.28,295.95L187.59,295.37L187.74,295.18L188.2,296.34L188.51,295.76L188.66,295.56L188.81,295.37L188.97,296.14L189.12,296.14L189.27,296.14L190.19,295.95L190.35,295.37L190.81,296.53L190.96,299.04L191.42,304.24L191.88,303.86L192.03,303.66L192.34,304.44L192.65,304.05L192.8,302.7L194.33,284.38L194.49,284.57L196.02,277.44L196.18,277.82L196.33,278.01L196.64,278.21L196.94,277.63L197.1,277.44L197.25,277.05L197.4,278.01L197.56,280.52L198.48,295.18L198.63,294.99L198.78,295.18L199.09,294.79L199.24,295.76L199.7,295.37L199.86,295.76L200.01,297.11L200.32,297.69L200.47,298.84L200.62,299.23L200.78,298.46L201.24,298.84L201.39,298.46L202,299.81L202.16,298.46L202.31,297.88L202.62,299.42L202.77,299.23L202.92,299.04L203.23,299.81L203.38,299.81L203.69,300.19L203.84,299.42L204,298.84L204.15,300L204.61,298.07L204.76,298.26L205.99,300.39L206.15,299.61L206.3,299.04L207.83,303.09L207.99,302.89L208.91,305.4L209.06,307.14L209.21,307.91L209.67,307.14L209.83,306.75L211.36,303.28L211.51,300.58L211.82,297.11L211.97,295.76L212.89,286.31L213.05,284.19L215.19,250.63L215.35,251.21L215.5,250.82L216.27,246.19L216.58,246.96L216.73,246.58L218.88,272.23L219.03,277.05L219.34,279.17L219.64,278.21L219.8,276.86L220.41,274.93L220.56,275.12L220.72,275.51L221.33,277.82L221.64,276.66L221.79,277.05L222.1,275.7L222.25,273.77L223.63,267.99L223.78,268.37L223.94,269.53L224.24,269.34L225.01,273L225.16,274.16L226.24,279.94L226.39,279.36L226.55,278.59L227.62,282.64L227.77,283.22L229.31,287.08L229.46,286.89L229.61,285.73L230.84,287.08L230.99,289.01L232.07,293.25L232.22,292.09L232.37,291.51L233.14,289.39L233.29,289.78L233.45,288.81L233.6,287.46L234.06,289.59L234.21,290.36L234.98,289.01L235.29,289.2L235.44,289.39L236.82,292.29L236.98,292.86L238.36,298.26L238.51,298.46L239.28,296.72L239.43,296.91L239.58,297.49L241.27,292.29L241.58,293.06L241.73,293.44L242.04,293.83L242.19,292.29L242.34,292.67L242.5,293.64L242.8,293.06L243.26,294.02L243.42,293.83L243.72,293.44L243.88,294.6L244.49,291.71L244.8,292.48L244.95,292.67L246.33,295.37L246.48,294.79L246.64,294.6L246.79,294.99L247.1,293.83L247.25,292.48L247.41,292.86L247.56,291.32L247.71,289.39L247.87,288.43L248.33,289.59L248.48,289.01L248.63,289.39L249.4,292.29L249.55,291.71L249.71,291.51L250.63,289.2L250.78,289.78L250.93,289.2L252.47,296.91L252.62,296.53L252.77,296.14L254,292.86L254.15,293.83L254.61,295.95L255.23,295.56L255.38,294.99L256.3,296.72L256.45,295.95L256.91,294.6L257.37,294.99L257.53,295.56L258.45,297.49L258.6,297.3L258.76,296.91L259.06,295.56L259.52,295.95L259.68,296.34L260.6,297.3L260.75,297.11L260.9,296.53L261.06,296.91L261.36,295.95L261.52,294.6L262.13,292.67L262.44,293.64L262.59,294.02L262.74,293.83L262.9,290.36L263.97,284.57L264.12,283.8L265.66,276.66L265.96,277.44L266.12,279.36L266.58,280.14L266.73,278.01L266.88,275.7L269.03,257.57L269.19,257.76L269.65,252.36L269.8,248.7L270.41,226.71L270.57,213.41L271.64,156.13L271.95,156.51L272.1,155.74L273.79,121.61L273.94,121.8L275.01,148.41L275.17,160.95L276.85,227.49L277.01,232.11L278.39,269.14L278.54,270.11L279.46,274.35L279.62,273L279.77,272.42L279.92,271.84L280.23,272.61L280.38,273.19L281.61,278.59L281.76,279.36L281.92,279.17L282.07,279.94L282.22,280.14L282.53,281.29L282.99,280.71L283.14,280.14L283.3,279.56L283.6,280.91L283.76,281.68L284.37,284.38L284.52,285.54L286.21,289.2L286.36,288.24L286.67,287.66L286.98,289.39L287.13,288.62L287.28,287.85L287.44,287.46L287.59,288.43L287.74,289.39L288.05,290.16L288.2,289.2L288.36,288.81L288.97,288.24L289.12,288.43L289.28,289.2L289.89,288.24L290.2,288.62L290.35,289.2L290.66,289.78L290.81,289.97L291.27,291.71L291.73,291.51L291.89,293.83L292.04,295.18L292.5,293.44L292.65,294.02L292.81,294.99L293.57,296.72L293.73,296.53L293.88,295.37L294.8,294.02L294.95,293.64L296.03,294.6L296.18,294.41L296.64,293.83L296.95,294.79L297.1,294.6L297.25,294.21L298.02,292.86L298.17,293.06L298.33,293.64L299.4,297.88L299.55,297.3L299.86,297.49L300.02,296.72L300.17,296.53L300.32,297.11L300.48,297.49L300.63,296.91L300.94,298.07L301.09,298.07L301.24,297.69L301.4,297.49L301.55,298.65L302.78,300.77L302.93,300.39L303.39,300.96L304,298.46L304.16,299.04L304.31,299.42L305.38,300.96L305.54,300.77L305.69,300.39L306,301.54L306.15,301.16L306.3,301.35L308.76,306.56L308.91,305.79L309.68,303.86L309.83,304.24L309.98,303.86L310.14,303.28L310.6,303.47L310.75,304.05L311.98,302.31L312.13,301.16L313.51,298.84L313.67,299.81L314.59,296.91L314.74,297.69L314.89,298.07L315.35,296.72L315.66,297.49L315.81,298.07L315.97,298.26L316.12,297.49L316.27,297.11L316.43,297.11L316.58,297.88L317.65,300.39L317.81,299.61L317.96,299.81L318.11,299.42L318.27,298.84L319.19,302.51L319.49,301.54L319.65,301.16L320.88,297.69L321.03,296.34L321.18,296.34L321.34,293.83L323.79,253.33L323.94,245.81L325.63,206.08L325.78,202.03L326.09,196.24L326.24,189.49L328.85,137.42L329,137.81L329.92,143.01L330.08,142.63L330.23,143.98L330.54,145.52L330.69,150.54L332.07,179.66L332.23,181.39L334.22,235.01L334.37,234.81L336.37,249.28L336.52,248.31L336.67,247.74L337.29,253.33L337.44,255.45L338.82,266.44L338.97,269.14L340.97,287.27L341.12,289.2L341.89,293.64L342.2,293.25L342.35,293.83L343.73,290.94L343.88,290.94L344.04,291.51L344.5,290.55L344.65,291.32L344.8,291.32L345.88,293.83L346.03,292.86L346.64,293.64L346.8,293.44L346.95,292.48L347.1,293.06L347.26,292.86L347.41,291.13L348.18,294.79L348.33,295.37L348.94,294.6L349.1,295.56L349.4,296.34L349.71,296.14L349.86,295.18L350.02,295.18L350.17,295.95L350.48,295.76L351.4,298.84L351.55,300.39L351.86,301.54L352.01,303.28L352.47,303.66L352.78,303.28L352.93,303.47L353.85,306.17L354.01,305.98L355.23,308.49L355.39,308.29L355.69,308.49L356,307.91L356.15,307.91L357.23,308.68L357.38,308.49L357.53,308.1L358.3,307.71L358.45,307.33L360.6,304.44L360.75,303.66L361.67,302.89L361.83,303.09L362.13,304.44L362.59,303.47L362.75,302.7L362.9,302.51L363.21,303.28L363.36,303.28L364.28,304.63L364.44,304.44L364.59,304.24L365.05,302.51L365.2,303.09L365.36,304.24L365.97,304.63L366.12,304.24L366.28,303.47L367.2,301.93L367.35,302.7L367.5,302.89L367.66,302.7L367.81,301.74L367.96,301.93L368.12,300.96L368.27,299.61L368.73,299.42L368.88,297.3L369.19,295.76L369.5,297.3L369.65,297.69L369.96,297.3L370.11,296.72L371.8,299.04L371.95,298.65L372.1,298.26L372.26,297.69L372.56,298.07L372.72,298.84L372.87,300L373.18,298.65L373.33,297.3L373.95,300.77L374.1,299.61L374.25,298.26L374.71,299.23L375.02,298.26L375.17,297.69L376.71,290.16L376.86,290.36L377.17,290.55L377.47,290.16L377.63,289.97L377.93,291.13L378.24,290.36L378.39,289.97L379.62,285.15L379.77,285.54L379.93,285.92L380.08,284.57L380.23,283.61L380.85,280.14L381.15,280.91L381.31,281.68L381.77,279.94L381.92,279.56L384.22,262.39L384.38,257.96L386.37,229.41L386.52,227.68L386.68,227.87L386.83,226.71L387.14,227.29L387.6,224.4L387.75,225.75L387.9,228.06L388.52,228.45L388.67,229.03L391.12,261.81L391.43,261.43L391.58,261.43L391.74,260.66L391.89,261.81L392.04,265.67L395.42,289.01L395.57,289.59L396.8,297.88L396.95,297.3L397.11,297.3L397.72,295.56L397.87,295.95L398.03,296.34L398.33,295.95L398.64,296.34L398.79,296.91L399.71,297.88L399.87,297.3L400.79,298.26L400.94,298.26L401.86,300.96L402.01,299.81L402.93,302.12L403.39,301.74L403.55,301.16L403.85,301.35L404.77,299.04L404.93,299.42L405.08,299.42L405.39,299.61L405.54,299.42L405.7,298.46L406,298.65L406.16,297.88L406.31,297.69L406.92,298.46L407.08,298.07L407.23,296.91L407.38,295.95L407.84,297.3L408,297.49L409.68,302.89L409.84,302.7L410.14,302.89L410.3,303.66L411.37,306.56L411.68,306.17L411.83,306.36L411.98,306.75L412.6,306.36L412.75,305.79L414.59,298.65L414.74,297.88L416.28,294.02L416.43,293.06L417.35,289.2L417.66,289.78L417.81,290.55L418.27,291.13L418.43,290.94L418.58,290.36L419.5,293.25L419.65,292.67L419.81,292.09L420.57,290.55L420.73,290.94L420.88,292.29L421.19,294.79L421.65,293.64L421.8,294.21L422.11,294.6L422.26,294.02L422.41,293.44L423.49,295.95L423.64,295.56L423.79,294.21L424.25,292.48L424.56,293.25L424.71,294.02L424.87,293.06L425.33,294.79L425.48,294.41L426.71,298.26L426.86,296.72L427.32,295.56L427.63,296.34L427.78,295.95L428.55,292.86L428.7,293.44L428.86,293.64L429.78,293.25L429.93,292.09L431.31,279.94L431.46,280.71L431.62,281.49L431.77,280.33L431.92,278.79L432.23,275.89L432.84,276.47L433,275.89L433.46,275.31L433.61,272.42L434.99,255.84L435.14,256.03L437.45,228.64L437.6,224.4L438.83,196.82L438.98,181.2L440.51,151.89L440.67,149.19L440.82,148.61L440.97,148.99L441.13,151.69L443.27,195.47L443.43,206.66L444.65,251.21L444.81,253.52L445.73,263.16L445.88,262.97L446.03,260.85L446.19,258.54L446.65,259.31L446.8,261.62L447.11,260.85L447.88,264.9L448.03,262.59L448.95,269.72L449.1,268.37L449.26,265.67L450.33,256.8L450.48,256.99L450.64,259.69L451.25,262.2L451.4,261.04L451.56,261.04L451.86,261.62L452.32,261.43L452.48,260.46L455.08,281.68L455.24,281.49L455.39,281.68L455.85,281.29L456,281.68L456.16,282.26L456.62,283.99L456.77,285.15L458,289.39L458.15,288.62L458.31,287.27L458.77,289.59L458.92,287.46L459.07,287.08L459.38,288.24L459.53,288.43L459.84,287.27L460.3,287.46L460.45,287.85L461.07,287.85L461.22,288.04L461.37,287.08L461.83,288.81L461.99,289.01L462.14,288.81L462.29,289.59L462.45,290.74L462.6,290.36L462.75,290.94L462.91,292.09L463.67,294.79L463.83,295.76L464.29,295.37L464.44,294.99L464.75,293.83L465.05,295.18L465.21,295.76L465.97,297.49L466.13,297.11L466.28,297.11L467.05,294.99L467.2,295.56L467.35,295.37L467.66,295.56L467.81,294.6L468.28,295.18L468.43,293.83L468.89,288.24L469.2,289.39L469.35,290.55L470.88,285.15L471.19,285.54L471.34,286.69L471.65,286.5L471.8,284.57L472.57,282.06L472.88,282.26L473.03,283.22L473.34,285.54L473.49,288.43L473.8,289.01L473.95,287.85L474.87,290.55L475.18,290.36L475.33,290.55L476.4,288.62L476.56,289.01L477.78,293.83L477.94,294.6L478.24,294.02L479.17,295.37L479.32,294.21L479.63,294.02L479.78,294.79L479.93,294.41L480.09,295.37L481.16,297.88L481.31,297.69L482.08,297.49L482.23,296.72L482.69,297.11L482.85,297.49L483.15,296.14L483.61,296.91L483.77,297.3L483.92,298.46L484.53,298.26L484.69,297.11L485.76,293.25L485.91,292.29L486.22,290.94L486.37,289.39L488.06,278.98L488.21,278.21L490.67,261.04L490.82,261.43L490.98,261.24L491.13,259.89L492.2,252.75L492.36,250.24L492.66,246.58L492.82,241.37L495.27,152.66L495.42,137.81L497.42,19.59L497.57,18.62L498.49,23.64L498.64,19.59L498.8,16.5L499.1,23.83L499.26,28.65L502.33,204.92L502.48,207.04L503.71,227.87L504.01,227.1L504.17,227.29L505.39,236.55L505.55,236.55L505.7,236.74L505.85,235.78L506.01,234.43L506.47,232.69L506.62,234.43L506.77,235.39L508.15,249.28L508.31,249.86L508.92,249.28L510.3,258.73L510.46,262.97L511.07,271.26L511.53,268.76L511.68,268.37L511.84,267.02L512.14,269.53L512.3,269.34L512.45,270.49L512.76,269.34L512.91,270.69L513.06,271.84L513.98,275.31L514.14,274.54L514.44,275.89L514.75,273.77L514.9,273.96L515.67,273.96L515.82,272.61L518.28,281.68L518.43,281.49L518.58,281.29L518.74,281.49L518.89,280.33L519.04,280.14L519.2,281.29L520.73,288.24L520.89,288.04L521.04,286.89L521.65,283.99L521.96,284.19L522.11,285.15L522.88,285.15L523.03,285.73L524.41,281.1L524.57,280.52L525.49,278.01L525.64,278.59L525.79,279.56L526.56,281.49L526.71,280.14L527.17,278.4L527.48,279.56L527.63,279.56L529.63,289.97L529.78,289.78L529.93,290.36L531.01,292.09L531.16,290.94L531.78,292.29L531.93,292.67L534.84,277.24L535,277.05L535.61,274.35L535.76,275.51L535.92,276.47L536.22,276.86L536.68,273.19L537.14,274.16L537.3,274.74L537.76,275.89L537.91,277.05L538.37,278.59L538.52,279.17L538.68,279.17L538.83,279.94L538.98,280.14L539.14,282.06L540.36,280.52L540.52,279.75L540.98,274.74L541.59,275.31L541.75,275.31L542.36,275.7L544.05,267.41L544.2,267.41L544.35,267.21L544.51,268.95L545.89,260.27L546.04,261.04L546.35,258.73L546.65,260.66L546.81,260.85L546.96,259.89L547.27,261.43L547.42,261.04L547.57,262.01L548.49,244.84L548.65,241.56L551.25,164.23L551.41,159.41L553.25,98.27L553.4,80.91L554.32,62.59L554.48,60.28L554.78,57.96L555.09,62.59L555.24,67.8L557.85,130.29L558,147.84L559.23,196.24L559.38,199.71L560.46,208.01L560.61,207.62L560.76,206.08L560.92,204.34L561.22,206.66L561.38,204.54L561.53,206.08L561.84,205.89L562.45,212.06L562.6,213.79L564.29,228.06L564.45,228.26L564.6,227.87L564.75,229.61L566.9,246.96L567.05,250.82L567.51,253.71L567.82,252.36L567.97,251.98L568.28,254.49L568.74,252.56L568.89,252.75L569.35,252.36L569.51,253.33L569.66,255.26L570.58,263.16L570.73,262.2L570.89,261.81L571.19,262.39L571.35,260.85L571.5,260.66L571.65,258.92L571.81,258.34L571.96,259.31L572.11,259.31L572.27,261.62L573.34,264.51L573.5,264.71L573.8,267.21L574.11,264.9L574.26,263.36L574.57,263.94L574.72,262.39L575.03,261.81L575.18,262.97L575.34,263.94L575.8,263.74L576.26,266.06L576.41,265.86L576.56,265.48L577.79,262.2L577.94,263.55L578.1,262.97L578.4,263.74L578.56,264.9L579.94,270.69L580.09,271.07L580.4,271.46L580.7,270.11L580.86,270.69L581.01,271.07L581.47,271.26L581.62,270.49L581.93,272.61L582.24,271.46L582.39,271.07L582.7,271.65L582.85,271.46L583,269.53L583.46,268.76L583.62,267.6L583.77,267.79L583.93,265.67L584.08,266.64L584.54,265.29L584.69,265.29L585.46,269.53L585.61,267.21L585.77,266.25L586.53,265.48L586.69,265.86L586.84,267.99L587.15,268.37L587.3,267.02L587.76,265.29L587.91,262.78L588.07,261.24L588.53,262.97L588.68,261.81L588.83,261.62L589.75,258.73L589.91,259.11L591.13,267.41L591.44,266.44L591.59,267.02L591.75,266.25L592.05,268.37L592.21,269.91L593.74,281.29L593.89,281.68L594.36,282.26L594.51,281.1L595.43,282.06L595.58,283.41L595.74,283.03L595.89,284.38L596.04,284.76L596.81,283.99L596.96,284.96L598.04,287.85L598.19,287.08L598.5,286.11L598.65,284.57L599.72,279.75L599.88,278.21L601.87,265.29L602.02,264.32L602.33,262.39L602.48,262.78L602.64,260.27L604.32,233.85L604.48,230.96L608.62,79.18L609.08,80.14L609.23,78.41L609.39,76.48L609.54,80.14L609.69,89.4L609.85,93.26L610,93.06" style="vector-effect: none; fill: none; stroke: rgb(30, 61, 88); stroke-opacity: 1; stroke-width: 2.5px; opacity: 1;"/></g><g class="points"/><g class="text"/></g></g></g></g><g class="zerolinelayer-above"/><path class="xlines-above crisp" d="M0,0" style="fill: none;"/><path class="ylines-above crisp" d="M0,0" style="fill: none;"/><g class="overlines-above"/><g class="xaxislayer-above"><g class="xtick"><text text-anchor="middle" x="0" y="373" transform="translate(115.68,0)" style="font-family: 'Open Sans', 'Segoe UI', sans-serif; font-size: 12px; fill: rgb(30, 41, 59); fill-opacity: 1; white-space: pre;">2016</text></g><g class="xtick"><text text-anchor="middle" x="0" y="373" style="font-family: 'Open Sans', 'Segoe UI', sans-serif; font-size: 12px; fill: rgb(30, 41, 59); fill-opacity: 1; white-space: pre;" transform="translate(227.8,0)">2018</text></g><g class="xtick"><text text-anchor="middle" x="0" y="373" style="font-family: 'Open Sans', 'Segoe UI', sans-serif; font-size: 12px; fill: rgb(30, 41, 59); fill-opacity: 1; white-space: pre;" transform="translate(339.77,0)">2020</text></g><g class="xtick"><text text-anchor="middle" x="0" y="373" style="font-family: 'Open Sans', 'Segoe UI', sans-serif; font-size: 12px; fill: rgb(30, 41, 59); fill-opacity: 1; white-space: pre;" transform="translate(451.89,0)">2022</text></g><g class="xtick"><text text-anchor="middle" x="0" y="373" style="font-family: 'Open Sans', 'Segoe UI', sans-serif; font-size: 12px; fill: rgb(30, 41, 59); fill-opacity: 1; white-space: pre;" transform="translate(563.86,0)">2024</text></g></g><g class="yaxislayer-above"><g class="ytick"><text text-anchor="end" x="59" y="4.199999999999999" transform="translate(0,345.43)" style="font-family: 'Open Sans', 'Segoe UI', sans-serif; font-size: 12px; fill: rgb(30, 41, 59); fill-opacity: 1; white-space: pre;">0</text></g><g class="ytick"><text text-anchor="end" x="59" y="4.199999999999999" style="font-family: 'Open Sans', 'Segoe UI', sans-serif; font-size: 12px; fill: rgb(30, 41, 59); fill-opacity: 1; white-space: pre;" transform="translate(0,287.57)">10</text></g><g class="ytick"><text text-anchor="end" x="59" y="4.199999999999999" style="font-family: 'Open Sans', 'Segoe UI', sans-serif; font-size: 12px; fill: rgb(30, 41, 59); fill-opacity: 1; white-space: pre;" transform="translate(0,229.71)">20</text></g><g class="ytick"><text text-anchor="end" x="59" y="4.199999999999999" style="font-family: 'Open Sans', 'Segoe UI', sans-serif; font-size: 12px; fill: rgb(30, 41, 59); fill-opacity: 1; white-space: pre;" transform="translate(0,171.86)">30</text></g><g class="ytick"><text text-anchor="end" x="59" y="4.199999999999999" style="font-family: 'Open Sans', 'Segoe UI', sans-serif; font-size: 12px; fill: rgb(30, 41, 59); fill-opacity: 1; white-space: pre;" transform="translate(0,114)">40</text></g><g class="ytick"><text text-anchor="end" x="59" y="4.199999999999999" style="font-family: 'Open Sans', 'Segoe UI', sans-serif; font-size: 12px; fill: rgb(30, 41, 59); fill-opacity: 1; white-space: pre;" transform="translate(0,56.14)">50</text></g></g><g class="overaxes-above"/></g></g><g class="polarlayer"/><g class="smithlayer"/><g class="ternarylayer"/><g class="geolayer"/><g class="funnelarealayer"/><g class="pielayer"/><g class="iciclelayer"/><g class="treemaplayer"/><g class="sunburstlayer"/><g class="glimages"/><defs id="topdefs-fcf87c"><g class="clips"/></defs><g class="layer-above"><g class="imagelayer"/><g class="shapelayer"/></g><g class="infolayer"><g class="g-gtitle"/><g class="g-xtitle"/><g class="g-ytitle"/></g></svg>