<svg class="main-svg" xmlns="http://www.w3.org/2000/svg" xmlns:xlink="http://www.w3.org/1999/xlink" width="700" height="420" style="" viewBox="0 0 700 420"><rect x="0" y="0" width="700" height="420" style="fill: rgb(0, 0, 0); fill-opacity: 0;"/><defs id="defs-ca4340"><g class="clips"><clipPath id="clipca4340xyplot" class="plotclip"><rect width="610" height="330"/></clipPath><clipPath class="axesclip" id="clipca4340x"><rect x="60" y="0" width="610" height="420"/></clipPath><clipPath class="axesclip" id="clipca4340y"><rect x="0" y="30" width="700" height="330"/></clipPath><clipPath class="axesclip" id="clipca4340xy"><rect x="60" y="30" width="610" height="330"/></clipPath></g><g class="gradients"/><g class="patterns"/></defs><g class="bglayer"><rect class="bg" x="60" y="30" width="610" height="330" style="fill: rgb(0, 0, 0); fill-opacity: 0; stroke-width: 0;"/></g><g class="layer-below"><g class="imagelayer"/><g class="shapelayer"/></g><g class="cartesianlayer"><g class="subplot xy"><g class="layer-subplot"><g class="shapelayer"/><g class="imagelayer"/></g><g class="minor-gridlayer"><g class="x"/><g class="y"/></g><g class="gridlayer"><g class="x"><path class="xgrid crisp" transform="translate(115.25999999999999,0)" d="M0,30v330" style="stroke: rgb(255, 255, 255); stroke-opacity: 1; stroke-width: 1px;"/><path class="xgrid crisp" transform="translate(227.47,0)" d="M0,30v330" style="stroke: rgb(255, 255, 255); stroke-opacity: 1; stroke-width: 1px;"/><path class="xgrid crisp" transform="translate(339.52,0)" d="M0,30v330" style="stroke: rgb(255, 255, 255); stroke-opacity: 1; stroke-width: 1px;"/><path class="xgrid crisp" transform="translate(451.73,0)" d="M0,30v330" style="stroke: rgb(255, 255, 255); stroke-opacity: 1; stroke-width: 1px;"/><path class="xgrid crisp" transform="translate(563.78,0)" d="M0,30v330" style="stroke: rgb(255, 255, 255); stroke-opacity: 1; stroke-width: 1px;"/></g><g class="y"><path class="ygrid crisp" transform="translate(0,304.46)" d="M60,0h610" style="stroke: rgb(255, 255, 255); stroke-opacity: 1; stroke-width: 1px;"/><path class="ygrid crisp" transform="translate(0,262.63)" d="M60,0h610" style="stroke: rgb(255, 255, 255); stroke-opacity: 1; stroke-width: 1px;"/><path class="ygrid crisp" transform="translate(0,220.8)" d="M60,0h610" style="stroke: rgb(255, 255, 255); stroke-opacity: 1; stroke-width: 1px;"/><path class="ygrid crisp" transform="translate(0,178.96)" d="M60,0h610" style="stroke: rgb(255, 255, 255); stroke-opacity: 1; stroke-width: 1px;"/><path class="ygrid crisp" transform="translate(0,137.13)" d="M60,0h610" style="stroke: rgb(255, 255, 255); stroke-opacity: 1; stroke-width: 1px;"/><path class="ygrid crisp" transform="translate(0,95.3)" d="M60,0h610" style="stroke: rgb(255, 255, 255); stroke-opacity: 1; stroke-width: 1px;"/><path class="ygrid crisp" transform="translate(0,53.47)" d="M60,0h610" style="stroke: rgb(255, 255, 255); stroke-opacity: 1; stroke-width: 1px;"/></g></g><g class="zerolinelayer"><path class="yzl zl crisp" transform="translate(0,346.29)" d="M60,0h610" style="stroke: rgb(255, 255, 255); stroke-opacity: 1; stroke-width: 2px;"/></g><g class="layer-between"><g class="shapelayer"/><g class="imagelayer"/></g><path class="xlines-below"/><path class="ylines-below"/><g class="overlines-below"/><g class="xaxislayer-below"/><g class="yaxislayer-below"/><g class="overaxes-below"/><g class="overplot"><g class="xy" transform="translate(60,30)" clip-path="url(#clipca4340xyplot)"><g class="scatterlayer mlayer"><g class="trace scatter trace9b639b" style="stroke-miterlimit: 2; opacity: 1;"><g class="fills"/><g class="errorbars"/><g class="lines"><path class="js-line" d="M0,307.92L0.92,312.7L1.07,313.15L1.23,313.5L1.53,312.49L1.69,312.8L1.84,312.43L2.61,313.5L2.76,312.33L3.07,311.51L3.53,312.11L3.68,312.27L5.07,311.55L5.22,311.83L5.68,311.55L5.83,310.99L6.45,311.55L6.75,311.27L6.91,311.27L7.21,309.87L7.67,311.27L7.83,310.99L8.14,310.43L8.29,309.87L9.36,310.15L9.52,310.43L9.82,309.87L9.98,309.32L11.51,309.6L11.67,310.43L12.74,311.55L12.89,311.27L15.66,297.33L15.81,297.05L17.19,294.26L17.35,294.26L18.73,300.67L18.88,302.9L21.03,308.48L21.18,308.48L22.1,309.04L22.26,309.87L22.87,310.43L23.02,309.87L23.18,310.15L24.1,310.99L24.25,310.71L24.41,310.71L25.02,311.27L25.33,310.99L25.48,310.15L25.94,311.55L26.09,310.99L26.25,310.43L27.48,312.11L27.63,312.94L29.01,312.38L29.16,311.55L30.24,310.99L30.39,310.71L30.7,310.99L30.85,311.55L32.08,310.99L32.23,310.71L32.54,310.99L32.7,310.43L32.85,310.15L33.16,309.87L33.62,310.15L33.77,310.71L34.23,310.99L34.38,311.55L34.54,311.27L34.84,312.11L35,312.38L35.3,312.66L35.76,312.11L35.92,312.11L36.23,312.38L36.69,312.11L36.84,312.11L37.45,312.66L37.61,312.94L38.07,312.11L38.37,312.94L38.53,313.22L39.76,312.38L39.91,311.27L40.06,310.71L40.68,310.99L40.83,310.99L42.37,308.76L42.52,309.32L42.67,309.6L43.59,306.81L43.9,307.09L44.05,307.09L44.36,307.09L44.51,307.92L44.67,308.48L45.28,307.92L45.44,307.09L45.74,306.81L46.2,307.36L46.36,307.09L47.74,299.84L47.89,301.23L49.27,299.56L49.43,299.84L50.5,298.72L50.65,296.77L52.5,287.56L52.65,287.56L54.18,274.46L54.34,273.9L56.03,260.24L56.33,261.63L56.49,261.91L57.1,258.84L57.25,250.2L58.18,225.1L58.33,224.54L58.64,224.82L58.79,226.49L60.02,236.25L60.17,237.37L61.4,247.96L61.55,249.64L61.71,250.75L61.86,258.28L62.78,288.96L62.93,289.8L63.55,290.91L63.7,290.07L63.86,289.52L65.54,298.16L65.7,299.56L65.85,299.84L66.16,299L66.31,299L67.39,302.9L67.54,302.35L67.69,302.07L68.15,301.51L68.31,302.07L68.46,302.62L69.07,301.23L69.23,299.56L70.46,294.82L70.92,295.93L71.07,296.49L71.22,296.77L71.38,294.82L73.06,285.89L73.22,285.61L73.37,284.22L73.83,285.89L73.99,284.78L74.14,284.22L74.6,282.82L74.75,283.38L74.91,284.78L75.06,285.61L75.21,283.94L75.37,283.94L75.52,283.1L75.67,281.99L75.98,283.94L76.13,285.33L76.29,285.33L76.44,286.17L77.21,292.58L77.52,290.91L77.67,291.19L81.2,303.18L81.35,303.18L81.81,302.62L81.97,304.02L82.43,304.85L82.58,303.74L83.04,303.74L83.2,304.3L83.66,303.46L83.96,304.02L84.12,305.13L84.58,305.69L84.73,305.41L84.88,304.85L86.27,299.84L86.42,300.39L86.57,300.95L87.03,300.67L87.19,301.51L87.8,301.79L87.95,302.35L88.88,303.46L89.03,303.18L89.18,302.62L91.02,309.32L91.18,309.04L91.79,308.2L91.95,308.76L92.1,309.6L92.25,309.87L92.41,309.04L92.56,308.76L93.02,307.36L93.33,307.64L93.48,307.92L93.94,307.09L94.25,307.36L94.4,307.92L96.24,307.92L96.4,308.48L96.86,307.09L97.16,307.64L97.32,308.2L98.09,305.97L98.24,304.02L98.85,305.41L99.01,304.3L99.16,304.3L99.31,304.58L99.47,304.3L99.62,303.46L100.69,301.79L100.85,300.11L101.77,295.93L101.92,290.35L102.69,272.51L102.84,259.68L103.76,225.1L103.92,222.59L104.38,222.87L104.53,222.03L104.69,222.59L104.84,221.75L104.99,221.75L105.15,220.08L105.61,222.31L105.76,220.64L105.91,218.13L106.07,216.45L106.37,218.68L106.53,224.26L107.29,239.32L107.45,253.82L108.22,284.22L108.37,283.1L108.52,285.33L108.68,285.05L108.83,285.61L108.98,285.61L109.14,286.45L109.6,284.78L109.9,285.33L110.06,286.17L110.83,290.07L111.13,288.68L111.29,287.84L112.36,293.14L112.51,293.42L112.82,293.7L112.97,295.65L114.97,288.96L115.12,290.91L115.89,293.42L116.04,292.86L116.2,292.86L117.58,288.4L117.89,289.24L118.04,289.8L118.19,289.24L118.65,289.8L118.81,290.07L119.11,288.96L119.27,286.17L119.42,287.29L119.88,285.89L120.04,285.33L120.65,283.66L120.8,283.94L120.96,284.78L121.11,284.78L121.26,286.17L121.72,287.56L121.88,288.4L122.34,290.91L122.8,289.8L122.95,290.35L124.95,299.84L125.1,299.56L125.41,300.67L125.71,299.84L125.87,299.28L126.48,299L126.64,297.88L126.94,297.6L127.1,298.72L127.25,298.44L127.4,299L127.56,299L127.71,299.28L128.63,301.23L128.78,300.95L129.09,301.51L129.25,301.79L129.71,302.62L129.86,301.51L130.01,300.67L130.17,300.67L130.32,301.51L130.78,302.62L130.93,302.07L131.09,301.51L131.24,302.62L131.85,302.07L132.01,302.62L132.47,302.35L133.08,303.74L133.24,303.18L133.85,302.07L134.16,302.35L134.31,302.9L134.46,303.74L134.77,302.07L134.92,301.79L135.39,299.56L135.69,300.95L135.85,300.67L136,301.51L136.46,300.67L136.61,300.39L137.69,300.95L137.84,301.79L138.3,303.46L138.76,302.9L138.92,302.62L139.99,308.48L140.3,307.64L140.45,307.92L140.91,307.64L141.06,308.48L141.68,309.04L141.83,308.48L141.99,308.2L144.44,303.46L144.59,303.74L145.52,304.85L145.67,304.58L146.13,303.74L146.44,304.3L146.59,304.3L146.9,304.85L147.05,305.41L147.82,305.97L147.97,307.36L148.43,308.76L148.59,310.15L149.05,309.04L149.35,309.6L149.51,309.87L150.27,310.99L150.43,309.6L150.89,309.87L151.04,310.43L151.81,309.87L151.96,309.32L152.42,310.15L152.73,309.6L152.88,309.6L153.34,309.87L153.5,310.71L153.96,308.48L154.11,306.25L154.57,304.58L154.73,301.79L155.95,291.47L156.11,290.91L157.64,275.85L157.8,274.74L158.56,273.06L158.72,275.02L158.87,274.74L159.02,265.81L160.71,186.61L160.87,187.45L161.94,190.8L162.09,190.24L162.25,189.4L163.17,181.04L163.32,173.78L163.48,167.93L163.78,183.82L163.94,197.77L165.47,258.28L165.62,257.17L165.78,255.49L166.24,255.49L166.39,254.66L166.85,251.87L167.16,252.15L167.31,254.66L167.47,254.1L167.62,255.49L167.77,258.84L168.69,276.13L168.85,275.85L169,276.41L169.46,275.85L169.61,277.25L170.08,277.25L170.23,280.04L171.61,291.19L171.76,290.91L172.53,287.01L172.68,288.12L173.76,285.05L173.91,283.94L175.29,281.71L175.45,281.43L176.22,281.99L176.37,282.55L176.98,288.68L177.29,287.56L177.44,287.84L178.82,294.26L178.98,293.42L179.13,294.54L179.59,293.7L179.75,292.86L180.36,293.14L180.67,291.47L180.82,292.86L180.97,294.54L181.43,292.31L181.59,291.47L182.05,292.31L182.2,291.19L182.36,291.19L182.51,290.91L182.66,291.47L182.82,292.58L183.43,294.54L183.58,296.49L183.74,296.49L183.89,297.33L184.2,297.33L184.35,299L185.27,301.23L185.43,300.95L185.58,300.67L185.73,301.51L186.04,299.56L186.19,298.16L186.35,297.33L186.65,298.72L186.81,299.84L187.42,298.72L187.57,299L187.73,299.84L187.88,300.11L188.19,299.28L188.34,299L188.5,298.72L188.65,299.28L188.96,299.28L189.11,299.28L189.88,298.72L190.03,298.16L190.49,299.84L190.64,301.79L190.95,305.41L191.41,303.74L191.57,304.02L191.87,304.58L192.33,303.74L192.49,302.07L194.02,281.99L194.17,282.27L195.71,274.74L196.17,275.57L196.32,275.57L196.94,274.74L197.09,275.85L198.63,296.21L198.78,295.93L198.93,296.77L199.39,296.49L200.01,298.44L200.16,299.56L200.93,300.39L201.08,299.28L201.7,300.95L201.85,299.56L202,298.72L202.31,300.39L202.46,300.67L203.23,301.23L203.38,301.51L204.15,299.84L204.31,300.39L204.46,300.67L205.07,302.07L205.38,301.23L205.53,301.23L205.69,302.07L205.99,300.39L206.15,301.23L206.3,300.95L207.22,304.58L207.38,304.3L208.3,304.3L208.45,304.58L209.06,307.92L209.37,307.36L209.52,307.09L210.75,305.69L210.91,305.97L211.83,296.77L211.98,294.26L212.59,287.84L212.75,285.33L214.9,250.75L215.05,251.59L215.2,251.87L215.97,246.57L216.43,247.13L216.59,249.36L216.89,249.36L217.05,250.47L218.58,275.57L218.73,280.31L219.04,282.82L219.19,281.15L219.35,281.15L219.81,277.53L220.27,278.64L220.42,279.2L220.88,280.59L221.04,280.31L221.19,278.64L223.49,269.44L223.65,270.55L225.33,278.36L225.49,277.53L225.95,281.15L226.1,280.31L226.26,279.2L226.41,279.2L226.56,280.59L226.72,279.2L227.18,281.71L227.33,282.82L229.02,288.68L229.17,288.12L229.79,286.73L229.94,287.29L230.09,288.12L230.55,288.12L230.71,290.63L231.78,295.65L232.09,295.09L232.24,293.42L232.86,291.75L233.01,292.03L233.16,290.35L233.47,287.84L233.78,290.35L233.93,291.19L234.7,289.24L235.01,289.8L235.16,290.35L235.93,291.75L236.08,291.19L236.23,290.91L236.85,293.14L237,294.26L237.15,293.7L237.31,294.82L237.61,293.98L237.77,295.65L238.69,298.44L238.84,299.28L240.07,294.82L240.22,293.98L240.53,294.26L240.68,293.42L240.84,292.58L241.61,290.63L241.76,291.75L241.91,290.63L242.37,292.58L242.53,290.91L242.68,290.91L243.14,291.75L243.29,291.19L243.45,290.35L243.6,291.19L243.91,289.52L244.06,289.52L244.21,289.24L246.06,296.77L246.21,295.93L246.36,295.65L246.82,293.98L246.98,292.86L247.13,293.42L247.28,291.75L247.44,289.24L247.59,287.84L248.05,290.07L248.21,289.52L249.13,293.42L249.43,292.58L249.59,291.75L250.66,288.96L250.82,290.63L250.97,289.52L251.28,291.47L251.43,291.47L251.58,292.58L252.2,299L252.5,297.33L252.66,296.77L252.81,297.05L253.12,296.21L253.27,296.21L253.73,293.7L254.04,295.65L254.19,296.49L255.11,295.93L255.27,296.49L255.42,296.21L255.57,297.88L256.03,298.44L256.8,296.21L256.96,296.77L257.11,297.05L257.57,298.16L257.72,297.6L257.88,297.05L258.34,297.88L258.64,297.05L258.8,295.93L259.72,297.88L259.87,296.77L260.49,297.05L260.64,296.49L260.95,297.33L261.1,295.93L261.87,292.58L262.17,293.42L262.33,294.26L262.48,294.82L262.63,292.31L263.71,287.84L263.86,286.73L265.55,280.31L265.7,281.99L265.86,283.38L266.01,283.1L266.17,283.94L266.32,284.5L268.31,265.81L268.47,264.7L269.7,252.98L269.85,249.08L271.84,161.24L272,157.89L273.69,129.72L273.84,131.95L273.99,133.63L274.45,139.2L274.61,146.73L276.3,225.65L276.45,227.89L278.75,272.78L278.91,273.9L279.21,274.46L279.37,273.34L279.52,272.78L279.67,271.67L280.13,273.34L280.29,275.57L280.59,275.02L280.75,276.69L281.05,276.97L281.21,278.92L281.98,279.48L282.13,280.59L282.9,280.04L283.05,279.2L285.51,289.52L285.66,289.24L285.81,288.68L286.73,291.19L286.89,290.35L287.04,288.96L287.81,291.19L288.12,290.35L288.27,290.07L289.19,288.96L289.34,289.8L289.8,288.4L289.96,288.96L290.11,289.8L291.03,291.75L291.19,290.63L291.34,290.35L291.49,291.75L291.95,295.65L292.41,294.82L292.57,295.93L293.33,298.16L293.49,297.88L293.64,296.77L294.72,293.98L294.87,294.26L296.4,292.03L296.56,292.31L296.71,292.86L297.02,292.31L297.17,292.03L297.48,290.91L297.63,292.31L297.94,291.47L298.09,292.03L298.25,293.14L299.17,297.05L299.32,296.49L301.78,301.51L301.93,302.07L302.85,301.51L303,302.07L303.16,302.9L303.77,300.39L304.08,301.23L304.23,300.95L306.23,303.18L306.38,302.9L307.46,304.3L307.61,303.74L307.76,303.74L308.53,306.53L308.99,305.97L309.14,305.97L310.37,304.85L310.53,305.41L310.83,305.13L310.99,304.58L311.14,304.3L311.29,305.41L311.45,305.41L311.6,305.69L311.75,305.13L311.91,303.74L312.98,302.35L313.14,302.07L314.36,299.84L314.52,300.39L314.67,300.67L314.82,299.84L314.98,300.11L315.13,299.56L315.74,301.51L315.9,300.95L316.05,300.39L316.21,299.84L316.51,300.95L316.67,301.51L317.43,302.9L317.59,301.79L317.89,301.51L318.05,300.95L319.12,304.02L319.28,303.18L319.43,302.62L320.2,303.18L320.35,302.07L322.81,274.46L322.96,270.83L323.73,247.41L323.88,240.99L328.64,139.2L328.79,141.16L328.95,143.39L329.1,143.39L329.25,142.55L332.17,188.01L332.32,194.7L334.01,238.2L334.16,237.93L334.63,241.55L334.78,243.78L336.16,251.59L336.31,251.31L336.47,250.75L336.62,251.87L336.77,254.1L336.93,254.38L337.08,256.61L338.46,267.76L338.62,268.04L340.46,288.68L340.61,288.12L342.15,294.26L342.3,293.98L342.91,295.37L343.07,293.98L344.3,291.75L344.45,292.58L345.68,296.21L345.98,295.37L346.14,295.09L346.44,295.65L346.6,294.54L346.75,293.42L346.9,293.98L347.06,293.42L347.21,291.47L347.52,291.75L347.67,292.58L348.13,294.54L348.59,294.26L348.75,293.7L349.21,295.65L349.51,295.37L349.67,294.54L349.82,294.26L349.97,295.09L350.13,295.37L350.28,294.82L350.59,296.21L350.74,296.49L350.9,296.49L351.05,297.33L352.28,303.74L352.43,303.74L354.43,309.6L354.58,309.04L355.65,310.43L355.81,310.15L355.96,309.87L356.27,310.71L356.42,310.71L356.73,310.99L357.04,310.71L357.19,310.43L358.11,309.6L358.26,309.6L359.65,307.92L359.8,308.2L359.95,308.48L360.11,308.2L360.26,307.36L361.18,304.58L361.33,304.85L361.49,304.85L362.1,306.25L362.25,305.69L362.41,304.85L362.87,304.02L363.18,304.85L363.33,305.13L363.48,305.69L364.1,305.41L364.25,304.85L364.86,303.18L365.02,304.3L365.79,306.25L365.94,305.69L367.01,303.46L367.17,304.02L367.78,302.9L367.93,302.07L369.01,296.21L369.16,297.05L369.32,297.33L369.62,296.77L369.78,296.21L370.08,295.37L370.54,295.65L370.7,296.49L371.62,297.33L371.77,297.05L371.93,296.77L372.08,296.49L372.39,296.77L372.54,297.33L372.69,298.16L373,296.77L373.15,295.65L373.77,300.39L374.07,298.44L374.23,299L374.53,299.84L374.84,299L374.99,297.88L376.68,289.52L376.84,290.07L376.99,290.07L378.22,288.12L378.37,287.01L379.45,282.27L379.6,283.1L379.75,284.22L380.52,279.76L380.67,280.31L380.83,281.43L381.29,281.99L381.44,280.87L382.52,278.64L382.67,275.57L384.2,262.47L384.36,258.28L386.35,227.89L386.51,228.16L387.43,222.59L387.58,224.26L387.74,227.61L388.5,227.89L388.66,229L390.96,262.47L391.11,261.35L391.27,261.35L391.42,262.19L391.57,261.35L391.73,262.47L391.88,266.65L393.11,278.36L393.26,278.08L394.64,291.47L395.26,290.63L395.41,291.19L396.64,298.72L396.95,297.33L397.1,295.65L397.71,295.93L397.87,296.21L398.17,295.93L398.94,297.88L399.25,297.33L399.4,297.33L399.86,298.72L400.17,297.6L400.32,297.33L400.94,299L401.24,298.44L401.4,299L402.62,301.51L402.78,301.51L403.55,299.84L403.85,300.11L404.01,300.11L404.47,298.44L404.77,299.84L404.93,300.39L405.39,300.39L405.54,299.56L405.69,299.84L405.85,299.56L406,298.72L406.31,299L406.46,299.56L406.62,299.84L406.92,299.28L407.08,297.6L407.23,296.77L407.54,298.16L407.69,298.72L408.61,301.51L408.76,303.18L409.07,302.9L409.53,303.18L409.69,302.62L409.84,302.35L410.15,303.18L410.3,304.02L411.22,306.53L411.37,305.69L411.53,305.97L411.83,307.09L412.45,306.53L412.6,305.97L414.75,299.84L414.9,300.11L415.06,300.11L417.51,292.03L417.67,292.58L417.82,292.86L418.28,293.14L418.43,292.31L418.74,291.75L418.9,292.86L419.05,292.86L419.2,294.26L419.66,292.31L419.82,292.03L419.97,291.47L420.43,291.75L420.58,292.31L421.66,296.21L421.81,296.77L421.97,297.05L422.12,296.21L422.27,295.65L423.19,298.44L423.5,297.6L423.65,297.05L424.11,295.37L424.42,296.49L424.57,296.77L424.88,296.21L425.34,296.49L425.5,296.49L426.26,298.16L426.57,297.88L426.72,296.77L427.18,295.09L427.49,296.21L427.64,295.93L428.57,292.31L428.72,292.58L429.18,293.14L429.49,292.86L429.64,292.31L431.18,279.76L431.48,280.87L431.64,280.59L432.86,275.57L433.02,275.29L433.32,276.13L433.48,272.78L434.55,258.56L434.71,258.84L434.86,257.45L436.24,251.03L436.39,247.96L438.39,214.78L438.54,208.64L439.92,155.38L440.08,153.43L440.23,152.87L440.39,149.24L440.85,146.18L441,149.8L441.15,151.2L443.3,206.13L443.45,220.36L445.3,263.58L445.45,264.42L445.76,264.14L445.91,261.91L446.06,259.68L446.52,261.35L446.68,263.02L446.99,262.47L447.6,264.98L447.75,266.09L447.91,263.58L448.21,265.53L448.37,268.6L448.83,270.55L448.98,268.32L449.13,266.09L450.21,255.77L450.36,256.61L450.52,259.4L451.44,261.63L451.59,261.91L451.74,263.02L452.2,262.19L452.36,260.79L453.74,269.72L453.89,273.06L455.27,284.5L455.43,284.22L455.58,283.94L455.89,282.82L456.04,283.66L456.2,284.22L456.35,284.22L456.5,285.33L457.88,293.42L458.04,292.58L458.19,291.75L458.65,293.42L458.8,291.75L458.96,291.75L459.11,291.47L459.27,292.31L459.42,292.58L460.03,290.07L460.34,291.19L460.49,291.47L461.26,289.8L461.41,290.07L461.57,290.35L462.03,290.07L462.34,290.63L462.49,290.35L463.87,294.82L464.02,294.26L464.33,293.98L465.1,296.49L465.25,297.6L465.71,297.05L465.87,298.44L466.17,298.72L466.94,297.33L467.09,297.88L467.71,296.77L468.01,297.6L468.17,297.88L469.86,287.56L470.01,287.84L470.32,287.56L470.47,286.73L470.78,285.05L471.08,285.33L471.24,286.45L471.55,286.73L471.7,285.33L472.77,283.1L472.93,284.5L474.31,292.03L474.46,292.03L474.92,292.31L475.08,292.03L475.23,291.47L475.69,292.03L476,291.75L476.15,290.91L476.3,290.35L476.46,291.19L476.61,291.19L476.76,291.75L477.68,294.26L477.84,294.54L479.07,297.6L479.22,296.77L479.37,296.49L479.68,297.33L479.83,296.77L479.99,297.33L481.22,300.39L481.37,300.39L481.68,301.23L481.98,300.95L482.14,300.11L482.9,300.39L483.06,299.56L483.36,299L483.67,299.84L483.82,300.67L484.13,299.84L484.29,300.39L484.44,301.23L485.82,292.58L485.97,292.58L487.97,277.53L488.12,276.97L490.27,261.91L490.43,261.35L491.35,258L491.5,257.45L492.88,235.97L493.03,228.44L494.72,179.36L494.88,169.88L497.49,20.4L497.64,21.8L498.1,20.68L498.25,24.03L498.71,16.5L498.87,20.96L499.79,72.27L499.94,86.22L502.09,209.76L502.24,211.99L504.24,235.69L504.39,235.69L505.01,234.02L505.16,236.25L505.31,238.48L505.93,236.53L506.08,235.42L506.39,234.3L508.23,249.64L508.38,249.08L508.54,247.69L508.84,247.13L509.31,250.47L509.46,252.43L509.77,252.15L509.92,254.1L511.15,269.16L511.3,268.6L511.45,267.21L511.61,267.49L511.76,266.65L511.91,268.88L513.91,279.2L514.06,278.08L514.37,279.2L514.52,277.8L514.68,276.41L515.45,277.8L515.6,276.69L515.75,275.02L516.21,277.8L516.37,278.92L516.67,278.36L516.83,279.2L516.98,279.76L518.05,282.27L518.21,281.99L518.36,281.43L518.67,281.71L518.82,280.31L518.98,280.31L519.13,281.99L519.9,284.22L520.05,283.38L520.2,283.38L520.51,287.56L520.97,286.73L521.12,285.89L521.59,283.38L521.89,284.5L522.05,285.33L523.12,286.73L523.27,286.17L523.58,287.29L523.89,286.73L524.04,285.61L524.35,285.89L525.42,281.99L525.58,282.82L526.19,286.73L526.5,285.89L526.65,284.22L527.26,281.99L527.42,283.1L527.57,283.1L527.73,282.82L527.88,283.94L528.03,284.5L528.8,286.73L528.95,285.89L529.11,286.17L530.33,292.58L530.49,292.86L531.41,290.63L531.56,291.75L531.72,293.14L531.87,293.98L532.02,293.14L532.18,290.91L534.48,280.31L534.63,280.59L535.55,275.57L535.71,276.97L535.86,278.64L536.32,276.41L536.47,273.9L536.63,273.06L536.78,275.02L536.94,275.85L537.09,275.02L537.55,276.41L537.7,277.25L539.7,282.27L539.85,281.15L540.16,283.1L540.31,281.99L540.47,281.43L540.93,278.08L541.54,278.36L541.69,278.08L542.31,278.36L542.92,273.9L543.07,273.06L543.23,273.62L543.38,272.51L543.54,271.95L544.3,270L544.46,271.95L546.14,260.79L546.3,260.51L547.53,266.09L547.68,263.86L552.44,128.33L552.59,119.68L553.36,75.06L553.51,67.25L553.82,60.56L553.97,64.75L554.13,63.91L554.74,56.66L554.89,58.05L555.05,62.24L556.28,81.76L556.43,84.27L556.89,89.84L557.04,96.26L559.5,198.88L559.65,198.88L559.81,198.6L559.96,201.39L560.57,207.81L560.88,205.02L561.03,205.3L564.41,229.28L564.56,227.61L565.33,230.4L565.49,232.07L565.79,231.51L566.71,242.11L566.87,246.01L567.48,252.43L567.79,251.59L567.94,251.87L568.56,257.45L568.86,256.33L569.02,256.33L570.55,267.21L570.7,265.25L570.86,263.86L571.01,263.58L571.17,263.86L571.32,261.91L571.78,260.79L571.93,262.47L572.55,265.53L572.7,264.14L572.85,263.02L573.31,264.42L573.47,264.42L573.93,267.49L574.08,265.53L574.24,263.3L574.54,263.86L574.85,261.07L575.16,262.47L575.31,263.86L576.08,266.09L576.23,265.53L577.77,259.96L577.92,261.07L578.07,261.07L578.69,264.42L578.84,266.37L578.99,266.09L579.15,264.14L579.91,270L580.07,269.44L580.22,269.16L581.14,271.39L581.3,270.83L581.6,270L581.76,271.67L581.91,273.34L584.52,265.81L584.67,266.09L585.44,269.72L585.59,267.49L585.75,265.53L586.21,266.09L586.51,264.7L586.67,264.98L586.82,267.49L587.59,265.25L587.74,263.86L588.36,258.84L588.66,259.12L588.82,259.4L590.05,255.49L590.2,257.73L591.12,265.53L591.43,265.25L591.58,266.37L591.73,264.98L592.04,267.49L592.19,269.44L594.34,284.5L594.5,283.38L595.57,284.5L595.72,284.22L595.88,285.61L596.34,286.45L596.65,285.89L596.8,285.89L597.87,290.35L598.03,290.35L598.95,286.17L599.1,286.73L599.26,287.01L599.41,287.56L599.56,287.29L599.72,283.66L603.4,254.94L603.55,253.54L604.01,243.78L604.17,237.65L604.63,228.44L604.78,223.42L606.62,143.67L606.78,138.09L609.23,70.04L609.39,68.09L610,83.71" style="vector-effect: none; fill: none; stroke: rgb(30, 61, 88); stroke-opacity: 1; stroke-width: 2.5px; opacity: 1;"/></g><g class="points"/><g class="text"/></g></g></g></g><g class="zerolinelayer-above"/><path class="xlines-above crisp" d="M0,0" style="fill: none;"/><path class="ylines-above crisp" d="M0,0" style="fill: none;"/><g class="overlines-above"/><g class="xaxislayer-above"><g class="xtick"><text text-anchor="middle" x="0" y="373" transform="translate(115.25999999999999,0)" style="font-family: Inter, 'Segoe UI', sans-serif; font-size: 12px; fill: rgb(30, 41, 59); fill-opacity: 1; white-space: pre;">2016</text></g><g class="xtick"><text text-anchor="middle" x="0" y="373" style="font-family: Inter, 'Segoe UI', sans-serif; font-size: 12px; fill: rgb(30, 41, 59); fill-opacity: 1; white-space: pre;" transform="translate(227.47,0)">2018</text></g><g class="xtick"><text text-anchor="middle" x="0" y="373" style="font-family: Inter, 'Segoe UI', sans-serif; font-size: 12px; fill: rgb(30, 41, 59); fill-opacity: 1; white-space: pre;" transform="translate(339.52,0)">2020</text></g><g class="xtick"><text text-anchor="middle" x="0" y="373" style="font-family: Inter, 'Segoe UI', sans-serif; font-size: 12px; fill: rgb(30, 41, 59); fill-opacity: 1; white-space: pre;" transform="translate(451.73,0)">2022</text></g><g class="xtick"><text text-anchor="middle" x="0" y="373" style="font-family: Inter, 'Segoe UI', sans-serif; font-size: 12px; fill: rgb(30, 41, 59); fill-opacity: 1; white-space: pre;" transform="translate(563.78,0)">2024</text></g></g><g class="yaxislayer-above"><g class="ytick"><text text-anchor="end" x="59" y="4.199999999999999" transform="translate(0,346.29)" style="font-family: Inter, 'Segoe UI', sans-serif; font-size: 12px; fill: rgb(30, 41, 59); fill-opacity: 1; white-space: pre;">0</text></g><g class="ytick"><text text-anchor="end" x="59" y="4.199999999999999" style="font-family: Inter, 'Segoe UI', sans-serif; font-size: 12px; fill: rgb(30, 41, 59); fill-opacity: 1; white-space: pre;" transform="translate(0,304.46)">5</text></g><g class="ytick"><text text-anchor="end" x="59" y="4.199999999999999" style="font-family: Inter, 'Segoe UI', sans-serif; font-size: 12px; fill: rgb(30, 41, 59); fill-opacity: 1; white-space: pre;" transform="translate(0,262.63)">10</text></g><g class="ytick"><text text-anchor="end" x="59" y="4.199999999999999" style="font-family: Inter, 'Segoe UI', sans-serif; font-size: 12px; fill: rgb(30, 41, 59); fill-opacity: 1; white-space: pre;" transform="translate(0,220.8)">15</text></g><g class="ytick"><text text-anchor="end" x="59" y="4.199999999999999" style="font-family: Inter, 'Segoe UI', sans-serif; font-size: 12px; fill: rgb(30, 41, 59); fill-opacity: 1; white-space: pre;" transform="translate(0,178.96)">20</text></g><g class="ytick"><text text-anchor="end" x="59" y="4.199999999999999" style="font-family: Inter, 'Segoe UI', sans-serif; font-size: 12px; fill: rgb(30, 41, 59); fill-opacity: 1; white-space: pre;" transform="translate(0,137.13)">25</text></g><g class="ytick"><text text-anchor="end" x="59" y="4.199999999999999" style="font-family: Inter, 'Segoe UI', sans-serif; font-size: 12px; fill: rgb(30, 41, 59); fill-opacity: 1; white-space: pre;" transform="translate(0,95.3)">30</text></g><g class="ytick"><text text-anchor="end" x="59" y="4.199999999999999" style="font-family: Inter, 'Segoe UI', sans-serif; font-size: 12px; fill: rgb(30, 41, 59); fill-opacity: 1; white-space: pre;" transform="translate(0,53.47)">35</text></g></g><g class="overaxes-above"/></g></g><g class="polarlayer"/><g class="smithlayer"/><g class="ternarylayer"/><g class="geolayer"/><g class="funnelarealayer"/><g class="pielayer"/><g class="iciclelayer"/><g class="treemaplayer"/><g class="sunburstlayer"/><g class="glimages"/><defs id="topdefs-ca4340"><g class="clips"/></defs><g class="layer-above"><g class="imagelayer"/><g class="shapelayer"/></g><g class="infolayer"><g class="g-gtitle"/><g class="g-xtitle"/><g class="g-ytitle"/></g></svg>